<?xml version="1.0" encoding="utf-8"?>
<!-- Generator: Adobe Illustrator 16.0.0, SVG Export Plug-In . SVG Version: 6.00 Build 0)  -->
<!DOCTYPE svg PUBLIC "-//W3C//DTD SVG 1.1//EN" "http://www.w3.org/Graphics/SVG/1.1/DTD/svg11.dtd">
<svg version="1.1" id="Layer_1" xmlns="http://www.w3.org/2000/svg" xmlns:xlink="http://www.w3.org/1999/xlink" x="0px" y="0px"
	 width="478.013px" height="417.718px" viewBox="0 0 478.013 417.718" enable-background="new 0 0 478.013 417.718"
	 xml:space="preserve">
<g>
	<path fill="#FFFFFF" d="M477.115,297.512c-1.299-9.547-3.035-19.092-5.637-27.335c-1.303-3.904-2.171-7.381-3.473-10.851
		c-4.339-11.281-8.68-21.263-13.882-30.81c-5.21-9.113-10.854-17.792-16.06-25.603c-5.641-7.378-10.415-14.753-15.191-21.696
		c-4.338-6.942-7.807-13.887-9.979-20.832l-9.981-0.431c-3.034,7.808-6.074,14.32-9.547,19.525
		c-3.036,4.772-5.641,8.246-7.811,10.416c-0.868,0.866-0.868,1.298-0.435,1.734c-3.036-0.868-6.508-1.734-10.849-2.17
		c-5.203-0.868-11.281-1.3-17.359-1.734c-6.509-0.869-12.578-0.869-18.223-1.305h-0.434c-6.075,0-11.285,0-16.056,0.436
		c-3.471,0-6.075,0.436-8.245,0.869c-1.734-1.737-3.904-4.772-5.641-7.812c-3.474-5.208-6.942-11.716-11.715-20.394l-7.894,1.027
		c0.05-1.963,0.079-3.902,0.079-5.802c0-14.32-2.167-27.773-6.071-39.054c-3.91-10.414-8.683-19.529-15.625-26.906
		c2.605-3.904,4.776-7.809,6.942-11.279c3.04-5.645,4.772-11.286,5.641-17.359c0-6.076-1.736-12.584-5.21-19.527h-0.431
		c-2.166-3.905-5.208-8.679-9.112-13.017c-3.903-4.775-8.245-9.115-13.018-13.454l-0.433-0.433
		c-4.776-3.905-9.982-7.378-15.19-9.981c-6.073-3.038-11.716-4.338-17.356-3.473c-6.509,0.436-11.283,3.905-16.058,9.549
		c-3.47,5.204-4.771,11.282-3.47,17.792c0.868,5.639,3.039,10.846,7.379,16.487c3.469,5.208,7.375,10.415,11.714,14.753
		c3.473,3.039,6.51,5.209,9.112,7.814c-4.772-1.305-9.98-2.169-15.187-2.605h-5.209c-0.866-4.339-1.734-9.113-3.035-13.453
		c-1.735-6.074-3.906-12.15-6.508-17.358c-3.039-5.639-6.943-9.978-10.85-13.017c-4.774-3.905-9.98-6.076-16.056-6.076
		c-4.34,0-9.546,0.436-15.624,1.3c-5.639,1.306-12.149,2.605-18.223,4.341c-6.943,1.733-13.019,3.904-19.095,6.51
		c-6.075,2.603-11.28,5.64-15.187,8.677c-5.208,3.904-8.248,7.813-9.115,12.585v-0.435c-1.733,5.207,0,9.981,5.207,15.189h0.436
		c6.074,6.074,13.018,9.979,20.395,11.715c7.376,1.734,14.319,2.17,21.264,0.868c6.943-0.868,13.017-2.604,17.791-5.21
		c1.302-0.865,2.604-1.733,3.903-2.167c0,0,0,0.434,0,0.868c0.438,1.299,0.438,2.17,0.873,3.038
		c-5.21,2.603-9.549,5.206-13.019,8.677c-4.775,3.909-9.115,8.248-13.019,13.017v0.436c-3.473,4.341-7.813,9.113-11.716,13.452
		c-4.341,4.776-9.547,9.549-15.189,14.32c-5.64,4.34-13.018,8.679-21.264,13.018c-13.017,6.077-24.299,12.588-35.148,19.529
		c-11.716,7.376-21.262,14.754-29.507,23h0.433c-8.68,8.245-15.188,16.924-19.528,26.47c-4.339,9.543-6.076,19.958-5.206,30.809
		c0.866,10.415,5.206,21.696,12.583,32.979v0.435c8.679,12.586,19.963,22.998,32.98,30.375c13.02,8.245,27.772,12.587,43.394,15.621
		c13.885,2.172,28.208,2.604,42.962,1.736c1.3,7.377,4.339,13.451,9.111,18.658c5.64,6.509,13.454,10.419,23,12.156v0.429
		c10.848,1.737,21.262,0.869,31.677-3.906c9.911-3.877,19.821-10.329,28.885-19.349c0.564,6.232,1.888,12.574,4.093,18.918
		c3.039,9.547,8.247,19.092,15.185,28.205c6.946,9.113,15.191,16.924,25.174,24.297c9.543,6.946,21.262,12.587,34.716,16.928
		c13.017,4.342,27.771,6.078,44.26,6.078h0.435c29.941-0.438,54.676-5.647,74.201-15.191c20.396-10.413,35.151-23.866,44.698-42.094
		c1.299-3.035,2.604-6.073,3.907-9.113C477.553,335.698,479.289,317.476,477.115,297.512z"/>
	<g>
		<g>
			<g>
				<path fill="#7F6D53" d="M239.754,33.678h-0.438c-4.336-3.906-9.11-6.944-13.885-9.115c-4.774-2.604-9.979-3.47-14.754-3.039
					c-5.642,0.436-9.981,3.473-14.32,8.248v0.431c-3.038,4.341-4.34,9.549-3.038,15.189c0.869,5.208,3.038,9.981,6.511,14.755
					c3.035,4.771,6.508,9.111,10.414,13.018c3.039,2.602,5.641,4.772,8.245,6.509c-4.339-0.868-9.113-1.736-13.884-1.736
					c-1.306-0.431-3.039-0.431-4.341-0.431c-0.868-3.909-1.736-7.816-2.603-11.72c-1.737-5.206-3.473-10.414-6.076-15.188
					c-2.603-4.773-5.642-8.679-9.548-11.717c-3.903-3.471-8.679-5.205-13.886-5.205c-3.904,0-8.243,0.434-13.45,1.3
					c-5.208,0.87-10.848,2.169-16.493,3.904c-5.638,1.304-11.281,3.473-16.488,5.644l0,0c-5.64,2.17-9.98,4.771-13.451,7.809
					c-4.341,3.038-6.943,6.944-8.245,10.85V62.75c-1.304,4.775,0,9.113,4.773,13.454h0.432c5.208,5.208,11.282,8.679,18.227,10.412
					c6.075,1.306,12.583,1.74,18.657,0.87c6.078-0.87,11.286-2.604,15.189-4.774c1.303-0.866,2.605-1.301,3.471-2.169
					c0,0.434,0,0.868,0.436,0.868c0,1.301,0,2.167,0.431,3.036c-4.338,1.738-8.242,4.339-11.279,7.378
					c-4.34,3.47-7.813,7.378-11.284,11.716l0,0c-3.471,3.905-6.942,7.811-10.848,12.151c-3.472,3.903-8.245,8.243-13.017,12.148
					c-5.209,3.907-11.286,7.813-18.662,11.718c-11.281,5.208-21.696,10.848-31.244,17.358c-9.981,6.075-18.661,13.018-25.602,19.962
					l0,0c-7.376,7.375-13.018,15.187-16.925,23.432c-3.904,8.245-5.207,17.359-4.34,26.904c0.436,9.113,4.34,19.094,10.85,29.072
					v0.435c7.81,11.281,17.356,19.962,29.074,26.905c11.282,6.512,24.3,10.847,38.186,13.451
					c12.152,2.168,24.735,2.604,37.753,1.302c1.302,6.943,3.904,12.153,7.809,16.924c5.21,5.21,11.718,8.681,20.395,10.413v0.438
					c9.55,1.736,18.662,0.431,27.774-3.474l0,0c8.677-3.473,17.357-9.113,25.602-17.357c8.247-7.812,15.624-17.358,22.563-28.205
					c6.51-11.283,12.587-23.433,17.359-36.887c5.21-13.451,9.551-27.34,12.149-42.091c3.042-14.752,4.34-28.206,4.34-40.79
					c-0.43-12.584-2.166-24.3-5.639-34.282c-3.471-9.113-7.813-16.924-13.455-23.865c2.174-3.041,3.906-6.51,6.077-9.983
					c2.602-4.774,3.907-9.546,4.772-14.751v-0.436c0-5.207-1.733-10.848-4.772-16.923l0,0c-2.171-3.471-4.771-7.376-8.245-11.718
					C247.562,41.487,243.657,37.582,239.754,33.678z M233.676,40.621c3.904,3.038,6.943,6.943,10.412,10.848
					c3.04,3.472,5.21,6.942,7.382,9.981l0,0c2.17,4.337,3.469,8.241,3.038,12.148l0,0c0,3.909-1.306,7.813-3.474,11.284
					c-2.17,4.338-4.771,8.242-7.377,12.15l0.431,6.075c6.078,6.074,10.851,13.885,13.889,22.999
					c3.04,9.113,4.342,19.963,4.776,31.245c0.434,12.15-0.872,25.166-3.908,39.053c-2.601,13.887-6.073,27.775-11.283,40.354
					c-4.772,13.021-10.846,24.736-16.922,35.151c-6.508,10.415-13.887,19.528-21.264,26.905
					c-6.941,7.377-14.753,12.152-22.564,15.621c-7.811,3.04-15.188,3.908-22.564,2.605c-6.51-1.302-11.716-3.907-15.189-8.244
					c-3.036-3.04-4.773-6.946-5.64-11.285c1.734-0.864,3.905-1.299,5.64-1.736c0.436,1.303,0.436,2.604,0.868,3.907
					c1.302,3.036,3.473,6.509,6.51,8.676c3.036,2.175,7.375,3.477,12.583,3.042c8.679-0.867,16.057-5.209,22.566-13.889
					c5.642-6.942,9.981-16.924,13.451-29.509c1.738-2.168,3.907-4.335,5.642-6.072v-0.437c5.207-5.641,8.679-11.715,11.284-18.658
					l1.3-4.342l-8.679-3.469l-1.301,4.774c-2.169,5.641-5.208,11.281-9.113,16.054h-0.434v-0.431
					c-1.736,2.167-3.905,4.341-5.642,6.508c-0.433,0-0.433,0-0.433,0.432c-0.435,0-0.435,0-0.87,0.438
					c-2.169,2.167-4.774,3.903-7.81,6.071l0,0c-3.039,1.739-5.642,3.472-8.679,5.208l0,0c-3.471,1.736-6.944,3.471-10.85,5.21
					c-3.038,1.299-6.506,2.598-9.981,3.903c-0.432,0.435-0.866,0.435-1.301,0.868h-0.434c-1.301,0.431-3.036,0.868-4.338,1.304
					c-6.076,1.732-10.85,3.035-15.624,3.469h-0.432c-13.453,1.736-26.472,1.306-39.49-0.868l0,0
					c-13.018-2.168-24.301-6.078-35.149-12.149c-0.868-0.868-1.736-1.302-3.039-1.736c2.604,0,5.642,0.435,8.679,0.435h0.434
					c5.209,0,11.284-0.435,17.358-1.732c5.643-1.306,11.716-3.474,17.358-6.509c5.642-3.042,10.414-6.946,14.319-12.155
					c3.905-5.203,6.51-11.712,7.813-19.092v-0.434c0.434-6.943-1.737-13.018-6.076-18.228h-0.434
					c-3.904-5.205-9.98-9.111-16.923-12.148c-6.944-3.471-14.754-5.642-22.567-6.944h-0.434c-7.809-1.736-16.055-2.17-23.433-1.736
					c-8.244,0.868-14.753,2.17-20.394,4.775c-0.868,0.435-2.168,0.87-3.037,1.301c3.037-6.076,7.81-12.15,13.887-18.223l0,0
					c6.941-6.943,14.751-13.454,23.865-19.095c9.546-6.078,19.529-11.716,30.376-16.49c8.245-3.905,14.755-8.245,20.394-12.584
					c0.434-0.436,0.868-0.87,1.304-1.301l0,0v0.431l7.811,5.209l2.169-3.905c1.3-1.735,3.037-2.603,4.773-3.471
					c2.604-1.302,4.773-1.302,6.944-1.302c1.733,0,3.034,0.434,3.904,1.302c0.434,1.3,0.434,3.037,0,5.206l-0.871,4.34l9.115,2.171
					l0.868-4.34c1.301-6.076,0.867-10.414-2.169-13.019c-2.606-3.039-6.078-4.774-9.983-5.208c-3.904,0-7.375,0.87-11.282,2.169
					c0.868-0.433,1.302-0.867,1.736-1.735c3.905-4.339,7.377-8.245,10.85-12.148v-0.436c3.472-3.903,6.509-7.375,10.414-10.412
					c3.036-3.039,7.375-5.645,11.715-7.378l3.039-4.339c0-2.169-0.434-4.775-1.301-7.811l0,0c-0.87-2.605-2.17-5.642-3.473-9.112
					l-8.679,0.434c-0.434,1.299-2.169,2.603-4.773,3.906l0,0c-3.47,1.734-7.377,3.038-12.149,3.905h-0.436
					c-4.772,0.432-9.98,0.432-15.188-0.867c-4.774-1.304-9.546-3.911-13.886-7.816h0.434c-1.736-1.299-2.603-3.033-2.603-4.338
					v-0.434c0.867-1.734,2.169-3.469,4.339-5.64h0.433c3.037-2.169,6.942-4.339,11.282-6.509c5.208-1.737,9.981-3.473,15.623-5.208
					c5.208-1.305,10.414-2.604,15.188-3.473c4.772-0.867,8.677-1.299,12.149-0.867c3.039,0,5.643,0.867,8.245,3.035
					c2.605,2.171,5.208,5.21,6.944,8.682c2.169,4.339,3.906,8.681,5.208,13.452c1.735,4.773,2.603,9.546,3.037,14.319l4.772,3.904
					c2.17,0,4.773,0.436,7.812,0.436c6.074,0.434,11.715,1.304,16.922,3.037l5.209-2.603c1.299-2.604,2.602-5.64,3.036-8.679
					l-2.604-4.773c-3.47-1.735-6.509-4.342-9.98-7.375c-3.905-3.473-6.943-7.378-9.548-11.284c-2.6-3.905-4.339-7.811-5.206-11.284
					c-0.433-3.037,0-6.073,1.736-8.242c2.603-3.039,5.208-4.775,7.81-5.209c3.039-0.436,6.51,0.434,10.417,2.171
					C225.432,34.544,229.771,37.148,233.676,40.621z M184.642,282.324h0.434c0-0.438,0.433-0.868,0.867-0.868
					c1.302-0.868,2.604-1.736,4.339-2.167l0,0c0.868-0.438,1.302-0.869,1.734-1.306c0,0.868-0.432,1.306-0.866,1.736
					c-1.736,4.771-4.339,8.68-6.944,12.153c-4.773,6.073-9.979,9.547-16.056,10.415c-2.602,0-4.77-0.438-6.075-1.304
					c-1.734-1.302-2.604-2.604-3.037-4.337c-0.434-1.306-0.869-2.174-0.869-3.042c0.435-0.431,1.301-0.431,1.737-0.431l0.866-0.436
					c4.775-1.736,9.546-3.469,14.321-5.643c3.039-1.3,6.075-3.036,9.111-4.772C184.642,282.324,184.642,282.324,184.642,282.324z"/>
				<path fill="#DDCCB8" d="M233.676,40.621c-3.905-3.473-8.245-6.076-11.714-7.811c-3.907-1.737-7.378-2.607-10.417-2.171
					c-2.602,0.434-5.207,2.171-7.81,5.209c-1.736,2.169-2.169,5.205-1.736,8.242c0.866,3.473,2.606,7.378,5.206,11.284
					c2.605,3.906,5.643,7.811,9.548,11.284c3.471,3.033,6.51,5.64,9.98,7.375l2.604,4.773c-0.434,3.039-1.736,6.076-3.036,8.679
					l-5.209,2.603c-5.208-1.733-10.848-2.603-16.922-3.037c-3.039,0-5.642-0.436-7.812-0.436l-4.772-3.904
					c-0.434-4.773-1.302-9.546-3.037-14.319c-1.302-4.771-3.039-9.113-5.208-13.452c-1.737-3.472-4.339-6.511-6.944-8.682
					c-2.602-2.168-5.206-3.035-8.245-3.035c-3.472-0.433-7.377,0-12.149,0.867c-4.774,0.87-9.98,2.168-15.188,3.473
					c-5.642,1.734-10.416,3.471-15.623,5.208c-4.34,2.169-8.245,4.339-11.282,6.509h-0.433c-2.17,2.17-3.473,3.905-4.339,5.64v0.434
					c0,1.305,0.867,3.039,2.603,4.338h-0.434c4.34,3.905,9.111,6.512,13.886,7.816c5.208,1.299,10.415,1.299,15.188,0.867h0.436
					c4.772-0.867,8.679-2.171,12.149-3.905l0,0c2.604-1.303,4.339-2.607,4.773-3.906l8.679-0.434
					c1.303,3.47,2.604,6.507,3.473,9.112l0,0c0.867,3.036,1.301,5.642,1.301,7.811l-3.039,4.339
					c-4.34,1.733-8.679,4.339-11.715,7.378c-3.905,3.037-6.942,6.509-10.414,10.412v0.436c-3.473,3.904-6.944,7.809-10.85,12.148
					c-0.434,0.868-0.868,1.302-1.736,1.735c3.907-1.299,7.378-2.169,11.282-2.169c3.905,0.434,7.377,2.169,9.983,5.208
					c3.036,2.604,3.47,6.942,2.169,13.019l-0.868,4.34l-9.115-2.171l0.871-4.34c0.434-2.168,0.434-3.905,0-5.206
					c-0.871-0.868-2.171-1.302-3.904-1.302c-2.17,0-4.339,0-6.944,1.302c-1.737,0.868-3.473,1.736-4.773,3.471l-2.169,3.905
					l-7.811-5.209v-0.431c-0.436,0.431-0.87,0.865-1.304,1.301c-5.639,4.339-12.149,8.679-20.394,12.584
					c-10.848,4.773-20.831,10.412-30.376,16.49c-9.113,5.641-16.924,12.152-23.865,19.095l0,0
					c-6.078,6.073-10.85,12.147-13.887,18.223c0.869-0.431,2.169-0.866,3.037-1.301c5.641-2.604,12.15-3.907,20.394-4.775
					c7.378-0.434,15.624,0,23.433,1.736h0.434c7.813,1.302,15.623,3.473,22.567,6.944c6.943,3.037,13.019,6.943,16.923,12.148h0.434
					c4.339,5.21,6.51,11.284,6.076,18.228v0.434c-1.303,7.38-3.907,13.889-7.813,19.092c-3.905,5.209-8.678,9.113-14.319,12.155
					c-5.642,3.035-11.715,5.203-17.358,6.509c-6.075,1.298-12.149,1.732-17.358,1.732h-0.434c-3.038,0-6.075-0.435-8.679-0.435
					c1.302,0.435,2.17,0.868,3.039,1.736c10.848,6.071,22.132,9.981,35.149,12.149l0,0c13.018,2.174,26.037,2.604,39.49,0.868h0.432
					c4.774-0.434,9.548-1.736,15.624-3.469c1.302-0.436,3.037-0.873,4.338-1.304h0.434c0.435-0.434,0.869-0.434,1.301-0.868
					c3.475-1.306,6.944-2.604,9.981-3.903c3.905-1.739,7.378-3.474,10.85-5.21l0,0c3.037-1.736,5.641-3.469,8.679-5.208l0,0
					c3.035-2.168,5.64-3.904,7.81-6.071c0.435-0.438,0.435-0.438,0.87-0.438c0-0.432,0-0.432,0.433-0.432
					c1.736-2.167,3.905-4.341,5.642-6.508l0.434,0.431c3.905-4.772,6.944-10.413,9.113-16.054l1.301-4.774l8.679,3.469l-1.3,4.342
					c-2.605,6.943-6.078,13.018-11.284,18.658v0.437c-1.734,1.737-3.903,3.904-5.642,6.072c-3.47,12.585-7.81,22.566-13.451,29.509
					c-6.509,8.68-13.887,13.021-22.566,13.889c-5.208,0.435-9.547-0.867-12.583-3.042c-3.037-2.167-5.208-5.64-6.51-8.676
					c-0.432-1.303-0.432-2.604-0.868-3.907c-1.734,0.438-3.905,0.872-5.64,1.736c0.866,4.339,2.604,8.245,5.64,11.285
					c3.473,4.337,8.679,6.942,15.189,8.244c7.377,1.303,14.753,0.435,22.564-2.605c7.811-3.469,15.623-8.244,22.564-15.621
					c7.377-7.377,14.755-16.49,21.264-26.905c6.076-10.415,12.15-22.13,16.922-35.151c5.21-12.579,8.683-26.467,11.283-40.354
					c3.036-13.887,4.342-26.903,3.908-39.053c-0.435-11.281-1.736-22.131-4.776-31.245c-3.038-9.113-7.811-16.924-13.889-22.999
					l-0.431-6.075c2.605-3.908,5.207-7.812,7.377-12.15c2.168-3.471,3.474-7.375,3.474-11.284l0,0
					c0.431-3.907-0.868-7.811-3.038-12.148l0,0c-2.172-3.039-4.342-6.51-7.382-9.981C240.619,47.563,237.58,43.658,233.676,40.621z
					 M175.527,143.898l2.607-3.906c2.168-2.605,5.64-4.773,9.978-6.074c4.339-0.868,8.246-1.304,12.585-0.436
					c4.339,0.867,8.247,2.607,10.848,6.076c3.039,3.039,4.339,7.379,3.039,13.455l-0.87,4.337l-9.108-2.17l1.299-4.337
					c0.434-2.171,0-3.905-0.868-5.208c-1.737-1.736-3.47-2.604-6.076-3.038c-3.036-0.87-5.641-0.434-8.677,0
					c-2.171,0.433-3.471,1.301-4.773,3.038l-2.604,3.473L175.527,143.898z M235.413,237.626l0.434,4.779l-9.115,0.861l-0.431-4.335
					c0-2.604-0.87-4.34-1.738-5.208l0,0c-1.301-0.868-2.602-1.299-4.34-1.299c-2.169,0-4.339,0.431-6.074,1.299l0,0
					c-1.735,0.868-3.036,1.302-3.906,2.17l-3.039,3.038l-6.508-6.076l3.039-3.471c1.301-1.736,3.904-3.038,6.942-4.337
					c3.036-1.306,6.075-1.741,9.113-1.741c3.471-0.434,7.377,0.872,9.98,3.04C233.241,228.517,234.98,232.425,235.413,237.626z"/>
				<path fill="#7F6D53" d="M178.134,139.993l-2.607,3.906l7.378,5.209l2.604-3.473c1.302-1.736,2.603-2.604,4.773-3.038
					c3.037-0.434,5.642-0.87,8.677,0c2.606,0.433,4.339,1.301,6.076,3.038c0.868,1.303,1.302,3.037,0.868,5.208l-1.299,4.337
					l9.108,2.17l0.87-4.337c1.301-6.076,0-10.416-3.039-13.455c-2.602-3.469-6.509-5.209-10.848-6.076
					c-4.339-0.868-8.246-0.432-12.585,0.436C183.774,135.219,180.303,137.388,178.134,139.993z"/>
				<path fill="#7F6D53" d="M235.847,242.405l-0.434-4.779c-0.433-5.201-2.172-9.109-5.642-11.279
					c-2.603-2.168-6.509-3.474-9.98-3.04c-3.039,0-6.078,0.436-9.113,1.741c-3.038,1.299-5.642,2.601-6.942,4.337l-3.039,3.471
					l6.508,6.076l3.039-3.038c0.87-0.868,2.17-1.302,3.906-2.17l0,0c1.735-0.868,3.905-1.299,6.074-1.299
					c1.738,0,3.039,0.431,4.34,1.299l0,0c0.868,0.868,1.738,2.604,1.738,5.208l0.431,4.335L235.847,242.405z"/>
			</g>
		</g>
		<g>
			<g>
				<path fill="#7F6D53" d="M404.216,176.445h-8.679c-2.602,6.509-5.207,12.147-8.249,16.921v-0.434
					c-2.601,4.34-4.771,7.378-6.509,9.113l-0.43,0.434c-0.435,0.434-0.435,0.869-0.435,1.303c-2.17-0.869-5.643-1.303-9.113-1.737
					c-4.774-0.865-9.547-1.3-15.188-1.735c-5.21-0.436-10.85-0.87-15.621-0.87h-0.438c-5.203-0.431-9.979,0-13.886,0
					c-3.035,0.434-5.205,0.434-6.939,0.87c-1.736-1.736-3.473-3.907-5.21-6.944c-2.604-4.339-6.073-9.978-9.98-17.358l-8.676,0.871
					c-0.872,4.771-3.473,10.848-6.946,18.223c-3.903,7.812-8.676,16.491-13.455,26.035c-5.201,9.547-10.411,19.529-15.184,29.944
					c-4.771,9.981-9.113,20.395-12.586,30.375c-3.47,9.981-5.206,19.096-5.641,27.341c-0.434,8.244,1.303,16.489,3.904,25.165
					c3.042,8.679,7.381,16.927,13.02,24.734c6.075,7.814,13.021,14.754,21.696,20.832c8.68,6.076,18.66,10.847,30.379,14.753
					c11.283,3.473,23.863,5.209,38.186,5.209h0.435c25.601-0.437,47.299-4.778,64.223-13.454
					c17.793-8.679,30.375-20.828,38.621-36.016c1.303-2.604,2.608-5.208,3.469-7.811c5.21-13.889,6.946-29.511,4.776-46.868
					c-0.872-8.245-2.604-16.49-4.776-23.866c-0.86-3.036-1.736-6.071-3.034-9.113c-3.474-9.545-7.377-18.658-12.153-26.469
					c-4.337-8.245-9.109-15.622-13.885-22.13c-4.771-6.945-9.109-13.019-13.018-19.093
					C409.426,188.593,406.387,182.517,404.216,176.445z M418.535,218.97L418.535,218.97c4.338,6.509,8.679,13.886,13.451,21.262
					c4.342,7.813,8.248,16.056,11.719,25.173c3.035,9.543,5.209,19.524,6.942,31.243c2.171,18.656-0.434,35.147-7.378,49.031
					c-7.375,13.886-18.66,24.302-34.281,32.113c-16.053,7.813-36.452,11.717-60.751,12.151c-13.021,0-24.734-1.303-35.585-4.775
					c-10.411-3.035-19.524-7.376-27.77-13.017c-7.811-5.641-14.322-11.719-19.525-19.096c-5.209-6.938-9.113-14.318-11.718-21.692
					c-2.17-7.813-3.474-15.191-3.039-22.137v-0.43c0-6.946,1.737-15.622,4.775-24.736c3.469-9.113,7.377-19.094,12.149-29.075
					c4.771-9.979,9.98-19.96,15.189-29.507c4.77-9.545,9.545-18.226,13.448-26.038v-0.431c1.737-3.474,3.036-6.51,4.342-9.549
					c1.736,3.471,3.473,6.51,5.206,8.679v0.434c3.038,4.774,6.073,8.245,8.679,10.414l4.341,0.871
					c1.299-0.871,3.904-0.871,7.377-1.303c3.904,0,8.679,0,13.448,0c5.209,0,9.984,0.432,15.19,0.867
					c5.207,0.436,9.981,0.869,14.754,1.737c3.906,0.434,7.377,0.868,9.547,1.732l1.732,0.438c0.439,0.435,2.605-0.868,6.509-4.773
					c2.174-2.171,4.776-5.642,7.814-10.416c1.736-2.604,3.474-5.208,4.776-8.243c1.732,3.035,3.469,6.507,5.637,9.544h-0.431
					C409.426,205.949,413.761,212.461,418.535,218.97z"/>
				<path fill="#F1DBBD" d="M418.535,218.97L418.535,218.97c-4.774-6.509-9.109-13.021-13.45-19.529h0.431
					c-2.168-3.037-3.904-6.509-5.637-9.544c-1.303,3.035-3.04,5.639-4.776,8.243c-3.038,4.773-5.641,8.245-7.814,10.416
					c-3.903,3.905-6.069,5.208-6.509,4.773l-1.732-0.438c-2.17-0.864-5.641-1.299-9.547-1.732
					c-4.772-0.868-9.547-1.301-14.754-1.737c-5.206-0.435-9.981-0.867-15.19-0.867c-4.77,0-9.544,0-13.448,0
					c-3.473,0.432-6.078,0.432-7.377,1.303l-4.341-0.871c-2.605-2.169-5.641-5.64-8.679-10.414v-0.434
					c-1.733-2.169-3.47-5.208-5.206-8.679c-1.306,3.039-2.604,6.075-4.342,9.549v0.431c-3.903,7.812-8.679,16.493-13.448,26.038
					c-5.209,9.547-10.419,19.528-15.189,29.507c-4.772,9.981-8.681,19.962-12.149,29.075c-3.038,9.114-4.775,17.79-4.775,24.736
					v0.43c-0.435,6.945,0.869,14.323,3.039,22.137c2.604,7.374,6.509,14.755,11.718,21.692c5.203,7.377,11.715,13.455,19.525,19.096
					c8.245,5.641,17.358,9.981,27.77,13.017c10.851,3.473,22.564,4.775,35.585,4.775c24.299-0.435,44.698-4.339,60.751-12.151
					c15.621-7.812,26.906-18.228,34.281-32.113c6.944-13.884,9.549-30.375,7.378-49.031c-1.733-11.719-3.907-21.7-6.942-31.243
					c-3.471-9.117-7.377-17.359-11.719-25.173C427.214,232.855,422.873,225.479,418.535,218.97z M379.481,232.425L379.481,232.425
					c3.903,0.431,7.807,3.469,11.718,9.111l3.035,3.471l-7.377,5.641l-3.035-3.908c-2.175-2.601-4.341-4.334-5.644-5.203
					c-1.302,0-2.601,0-3.473,0.869c-1.733,1.299-2.602,2.602-3.47,4.334l-1.303,4.342l-8.679-3.473l1.736-4.342
					c0.868-3.035,3.036-5.641,5.641-7.807l0,0C371.674,232.855,375.143,231.987,379.481,232.425z M351.272,243.267l2.605,3.473
					l-6.942,5.645l-3.038-3.47c-0.431-0.869-1.736-1.739-3.036-2.605c-1.306-0.434-2.604-0.868-3.903-1.302
					c-0.868,0-1.741,0-2.172,0.868c-1.306,0.864-1.739,2.17-2.17,4.772l-1.306,4.775l-8.676-2.171l0.868-4.338
					c0.868-5.21,2.604-8.683,5.205-10.42l0,0c3.04-2.166,6.078-3.034,9.118-2.601c2.598,0.435,5.203,0.864,7.807,2.601
					C347.807,239.8,349.974,241.536,351.272,243.267z M366.464,254.554h0.432c6.511,0.432,11.718,1.733,16.058,4.342
					c5.207,3.467,7.809,7.377,8.246,12.58v0.434c-0.438,4.774-3.039,9.116-8.246,12.151c-3.472,2.172-7.375,3.474-12.151,4.339
					c-1.302,0-2.604,0-3.906,0.434h-0.432c-4.341-0.434-7.81-0.868-11.283-2.167c-3.908-1.302-6.943-3.039-9.117-5.641l0,0
					c-2.166-3.042-3.466-6.078-3.466-9.116v-0.434c0-5.203,2.602-9.113,7.807-12.58
					C354.746,256.287,359.953,254.985,366.464,254.554z M332.182,304.024h0.435c3.474,2.167,6.939,3.036,10.413,3.036
					c3.472,0,6.944-0.869,9.547-2.605l0,0c3.038-1.733,5.205-3.903,6.942-6.075c1.736-2.167,2.171-4.337,2.604-6.507l8.245-2.603
					c2.604,3.904,5.641,6.942,9.113,9.976c3.472,2.604,6.942,3.91,10.849,4.778c2.605,0,5.207,0,7.809-1.303c0,0,0,0,0.438-0.434
					c0.431,0,0.868-0.438,1.732-0.438l0,0c3.473-2.168,6.078-5.638,8.68-10.413l2.168-4.341l8.247,4.341l-2.17,3.904
					c-3.473,6.946-7.808,11.719-12.586,14.321v0.432c-2.599,14.323-6.509,25.604-10.847,32.98v0.434
					c-5.641,8.679-13.886,13.455-23.867,14.757l0,0c-5.644,0.868-10.415-0.434-15.621-3.473c-4.339-3.036-8.68-6.942-12.583-11.718
					c-3.903-4.771-7.377-9.981-9.981-16.053c-2.604-5.21-4.342-10.415-5.641-16.056c-4.341-2.608-8.679-7.38-12.151-13.455
					l-2.603-3.906l7.808-4.772l2.605,3.473C324.802,297.946,328.708,301.851,332.182,304.024z"/>
				<path fill="#7F6D53" d="M379.481,232.425L379.481,232.425c-4.339-0.438-7.808,0.431-10.85,3.035l0,0
					c-2.604,2.166-4.772,4.771-5.641,7.807l-1.736,4.342l8.679,3.473l1.303-4.342c0.868-1.732,1.736-3.035,3.47-4.334
					c0.872-0.869,2.171-0.869,3.473-0.869c1.303,0.869,3.469,2.603,5.644,5.203l3.035,3.908l7.377-5.641l-3.035-3.471
					C387.288,235.894,383.385,232.855,379.481,232.425z"/>
				<path fill="#7F6D53" d="M353.878,246.739l-2.605-3.473c-1.299-1.73-3.466-3.467-5.64-4.772
					c-2.604-1.736-5.209-2.166-7.807-2.601c-3.04-0.434-6.078,0.435-9.118,2.601l0,0c-2.601,1.737-4.337,5.21-5.205,10.42
					l-0.868,4.338l8.676,2.171l1.306-4.775c0.431-2.603,0.864-3.908,2.17-4.772c0.431-0.868,1.304-0.868,2.172-0.868
					c1.299,0.434,2.598,0.868,3.903,1.302c1.3,0.866,2.605,1.736,3.036,2.605l3.038,3.47L353.878,246.739z"/>
				<path fill="#7F6D53" d="M366.896,254.554h-0.432c-6.511,0.432-11.718,1.733-16.06,4.342c-5.205,3.467-7.807,7.377-7.807,12.58
					v0.434c0,3.038,1.3,6.074,3.466,9.116l0,0c2.174,2.602,5.209,4.339,9.117,5.641c3.474,1.299,6.942,1.733,11.283,2.167h0.432
					c1.302-0.434,2.604-0.434,3.906-0.434c4.776-0.865,8.68-2.167,12.151-4.339c5.207-3.035,7.809-7.377,8.246-12.151v-0.434
					c-0.438-5.203-3.039-9.113-8.246-12.58C378.613,256.287,373.406,254.985,366.896,254.554z"/>
				<path fill="#7F6D53" d="M332.616,304.024h-0.435c-3.474-2.174-7.38-6.078-10.415-11.719l-2.605-3.473l-7.808,4.772l2.603,3.906
					c3.473,6.075,7.811,10.847,12.151,13.455c1.299,5.641,3.036,10.846,5.641,16.056c2.604,6.071,6.078,11.281,9.981,16.053
					c3.903,4.775,8.244,8.682,12.583,11.718c5.206,3.039,9.978,4.341,15.621,3.473l0,0c9.981-1.302,18.227-6.078,23.867-14.757
					v-0.434c4.338-7.377,8.248-18.657,10.847-32.98v-0.432c4.778-2.603,9.113-7.375,12.586-14.321l2.17-3.904l-8.247-4.341
					l-2.168,4.341c-2.602,4.775-5.207,8.245-8.68,10.413l0,0c-0.864,0-1.302,0.438-1.732,0.438
					c-0.438,0.434-0.438,0.434-0.438,0.434c-2.602,1.303-5.203,1.303-7.809,1.303c-3.906-0.868-7.377-2.174-10.849-4.778
					c-3.473-3.033-6.509-6.071-9.113-9.976l-8.245,2.603c-0.434,2.17-0.868,4.34-2.604,6.507c-1.737,2.172-3.904,4.342-6.942,6.075
					l0,0c-2.603,1.736-6.075,2.605-9.547,2.605C339.556,307.061,336.09,306.191,332.616,304.024z M349.105,337.438v-0.434
					c-3.473-3.91-6.508-8.683-9.112-13.892c-1.303-2.168-2.167-4.769-3.035-7.373c2.167,0.433,4.337,0.868,6.509,0.433
					c5.205,0,9.543-1.306,13.884-3.473c3.904-2.166,7.377-5.639,9.982-8.675c0.431-0.868,0.864-1.736,1.299-2.174
					c1.736,1.736,3.473,3.042,5.641,4.778c4.341,3.034,9.55,5.206,14.759,6.07c1.73,0.438,3.467,0.438,5.638,0.438
					c-2.171,10.848-5.207,19.092-8.68,25.167c-4.342,6.509-9.98,9.98-17.357,10.846c-3.036,0-6.071-0.431-9.547-2.167
					C355.614,344.381,352.142,341.342,349.105,337.438z"/>
				<path fill="#F58220" d="M349.105,337.004v0.434c3.036,3.904,6.509,6.943,9.979,9.545c3.476,1.736,6.511,2.167,9.547,2.167
					c7.377-0.865,13.016-4.337,17.357-10.846c3.473-6.075,6.509-14.319,8.68-25.167c-2.171,0-3.907,0-5.638-0.438
					c-5.209-0.864-10.418-3.036-14.759-6.07c-2.168-1.736-3.904-3.042-5.641-4.778c-0.435,0.438-0.868,1.306-1.299,2.174
					c-2.605,3.036-6.078,6.509-9.982,8.675c-4.341,2.167-8.679,3.473-13.884,3.473c-2.172,0.436-4.342,0-6.509-0.433
					c0.868,2.604,1.732,5.205,3.035,7.373C342.598,328.321,345.633,333.094,349.105,337.004z"/>
			</g>
		</g>
		<path fill="#F58220" d="M184.642,282.324h0.434c0-0.438,0.433-0.868,0.867-0.868c1.302-0.868,2.604-1.736,4.339-2.167l0,0
			c0.868-0.438,1.302-0.869,1.734-1.306c0,0.868-0.432,1.306-0.866,1.736c-1.736,4.771-4.339,8.68-6.944,12.153
			c-4.773,6.073-9.979,9.547-16.056,10.415c-2.602,0-4.77-0.438-6.075-1.304c-1.734-1.302-2.604-2.604-3.037-4.337
			c-0.434-1.306-0.869-2.174-0.869-3.042c0.435-0.431,1.301-0.431,1.737-0.431l0.866-0.436c4.775-1.736,9.546-3.469,14.321-5.643
			c3.039-1.3,6.075-3.036,9.111-4.772C184.642,282.324,184.642,282.324,184.642,282.324z"/>
	</g>
</g>
</svg>
