<?xml version="1.0" standalone="no"?>
<!DOCTYPE svg PUBLIC "-//W3C//DTD SVG 1.1//EN" "http://www.w3.org/Graphics/SVG/1.1/DTD/svg11.dtd" >
<svg>
<metadata>
Created by FontForge 20090622 at Tue Aug  7 03:04:27 2018
 By deploy user
Copyright (c) 2014 by Chanok Samiti. All rights reserved.
</metadata>
<defs>
<font id="CSChatThaiUI" horiz-adv-x="0" >
  <font-face 
    font-family="CS ChatThaiUI"
    font-weight="400"
    font-stretch="normal"
    units-per-em="2560"
    panose-1="2 0 5 3 0 0 0 0 0 0"
    ascent="2048"
    descent="-512"
    x-height="1352"
    cap-height="1820"
    bbox="-1376 -677 2260 2896"
    underline-thickness="156"
    underline-position="-6"
    unicode-range="U+0020-U+EE4B"
  />
<missing-glyph horiz-adv-x="1280" 
d="M128 0v1365h1024v-1365h-1024zM256 128h768v1110h-768v-1110z" />
    <glyph glyph-name=".notdef" horiz-adv-x="1280" 
d="M128 0v1365h1024v-1365h-1024zM256 128h768v1110h-768v-1110z" />
    <glyph glyph-name=".null" 
 />
    <glyph glyph-name="nonmarkingreturn" horiz-adv-x="853" 
 />
    <glyph glyph-name="space" unicode=" " horiz-adv-x="767" 
 />
    <glyph glyph-name="exclam" unicode="!" horiz-adv-x="673" 
d="M200 136q0 -70 36.5 -112t99.5 -42q64 0 101 42t37 112q0 46 -17 80t-48 52.5t-73 18.5q-63 0 -99.5 -40.5t-36.5 -110.5zM455 591v1232h-236v-1232h236z" />
    <glyph glyph-name="quotedbl" unicode="&#x22;" horiz-adv-x="911" 
d="M386 1820v-338l-64 -312h-101l-61 312v338h226zM751 1820v-338l-64 -312h-101l-61 312v338h226z" />
    <glyph glyph-name="numbersign" unicode="#" horiz-adv-x="1595" 
d="M790 0l100 512h-319l-100 -512h-189l100 512h-294v176h330l84 434h-320v178h356l102 520h189l-103 -520h319l103 520h188l-102 -520h248v-178h-282l-85 -434h274v-176h-309l-100 -512h-190zM691 1122l-85 -434h319l85 434h-319z" />
    <glyph glyph-name="dollar" unicode="$" horiz-adv-x="1491" 
d="M878 2120v-283q177 -29 292.5 -137.5t145.5 -262.5l-177 -82q-52 242 -261 294v-663q221 -74 335.5 -206.5t114.5 -318.5q0 -200 -126 -325t-324 -154v-240h-227v240q-189 25 -313 130t-159 272l205 70q15 -110 85.5 -184t181.5 -101v680q-436 152 -436 500
q0 196 122.5 327t313.5 162v282h227zM1106 459v1q0 123 -58.5 197t-169.5 119v-607q105 26 166.5 99.5t61.5 190.5zM437 1352q0 -108 56 -176.5t158 -112.5v587q-102 -26 -158 -102t-56 -196z" />
    <glyph glyph-name="percent" unicode="%" horiz-adv-x="1872" 
d="M130 1374v96q0 162 102 268q103 108 274 108q170 0 274 -108q102 -105 102 -268v-96q0 -161 -102 -266q-103 -108 -271 -108q-172 0 -277 108q-102 105 -102 266zM312 1470v-96q0 -93 50 -158q52 -64 147 -64q89 0 141 64q50 62 50 158v96q0 92 -51 158t-143 66
q-93 0 -144 -66q-50 -65 -50 -158zM1011 349v97q0 160 103 266q104 109 274 109q168 0 272 -109q104 -107 104 -266v-97q0 -162 -103 -268q-104 -107 -271 -107q-172 0 -276 107q-103 106 -103 268zM1194 446v-97q0 -94 50 -159q52 -64 146 -64q89 0 141 64q50 65 50 159v97
q0 92 -51 158q-50 65 -142 65q-94 0 -144 -65t-50 -158zM1461 1560l-889 -1422l-136 83l889 1423z" />
    <glyph glyph-name="ampersand" unicode="&#x26;" horiz-adv-x="1595" 
d="M80 490q0 73 20.5 137.5t50 111t80.5 95t93 79t107 73.5l-43.5 55l-37.5 50.5t-38 56.5l-28 54t-25.5 64t-13 64t-6.5 76q0 210 121.5 325t335.5 115q185 0 315 -109t130 -278q0 -47 -11 -91t-27.5 -78.5t-44 -69.5t-53 -60t-63 -55t-65.5 -49l-68.5 -47l-63.5 -45
l425 -512q97 153 108 349l211 -105q-34 -237 -180 -411l231 -279l-2 -6h-287l-106 128q-206 -154 -473 -154q-169 0 -302.5 60.5t-211.5 179t-78 276.5zM672 166q180 0 343 119l-451 544l-51.5 -38.5t-47 -37.5t-46.5 -43t-36 -44t-31.5 -52t-17.5 -56.5t-8 -67.5
q0 -149 94 -236.5t252 -87.5zM485 1409q0 -124 135 -295l62.5 41.5t70 47.5t59 48.5t56 60t32.5 66t15 81.5q0 82 -64.5 137.5t-154.5 55.5q-98 0 -154.5 -69t-56.5 -174z" />
    <glyph glyph-name="quotesingle" unicode="'" horiz-adv-x="547" 
d="M387 1820v-338l-64 -312h-101l-62 312v338h227z" />
    <glyph glyph-name="parenleft" unicode="(" horiz-adv-x="848" 
d="M165 728v11q0 280 82 548.5t222.5 467.5t311.5 290l8 -1l47 -145q-198 -155 -311.5 -465t-113.5 -693v-16q0 -385 113 -694t312 -475l-47 -135h-8q-171 91 -311.5 290.5t-222.5 468t-82 548.5z" />
    <glyph glyph-name="parenright" unicode=")" horiz-adv-x="858" 
d="M679 739v-11q0 -280 -82 -548.5t-223 -467.5t-312 -291h-7l-47 135q197 154 310.5 470t113.5 699v16q0 372 -116.5 690t-307.5 479l47 135h7q128 -69 241.5 -202.5t196.5 -305t131 -380t48 -418.5z" />
    <glyph glyph-name="asterisk" unicode="*" horiz-adv-x="1105" 
d="M208 612l197 258l-295 84l61 192l295 -112l-12 317h201l-13 -325l292 112l60 -196l-303 -84l191 -250l-164 -120l-176 272l-168 -262z" />
    <glyph glyph-name="plus" unicode="+" horiz-adv-x="1452" 
d="M846 1508v-529h499v-223h-499v-574h-246v574h-502v223h502v529h246z" />
    <glyph glyph-name="comma" unicode="," horiz-adv-x="505" 
d="M394 276v-86l-198 -512h-136l88 524v74h246z" />
    <glyph glyph-name="hyphen" unicode="-" horiz-adv-x="1153" 
d="M946 865v-193h-737v193h737z" />
    <glyph glyph-name="period" unicode="." horiz-adv-x="675" 
d="M438 242v-242h-237v242h237z" />
    <glyph glyph-name="slash" unicode="/" horiz-adv-x="1062" 
d="M989 1820l-759 -1976h-210l760 1976h209z" />
    <glyph glyph-name="zero" unicode="0" horiz-adv-x="1441" 
d="M1300 1178v-536q0 -194 -66 -343.5t-198.5 -237t-314.5 -87.5t-314.5 87t-199 237t-66.5 344v536q0 144 38.5 266t111 211.5t182.5 140t246 50.5q181 0 314 -87.5t200 -237.5t67 -343zM1064 592v637q0 126 -36 221.5t-115.5 153.5t-193.5 58q-169 0 -255 -119.5
t-86 -313.5v-637q0 -126 36 -222t114.5 -155t192.5 -59q170 0 256.5 120t86.5 316z" />
    <glyph glyph-name="one" unicode="1" horiz-adv-x="1441" 
d="M888 1846v-1846h-238v1431l10 195l-376 -199l-39 178l435 241h208z" />
    <glyph glyph-name="two" unicode="2" horiz-adv-x="1441" 
d="M742 1663q-144 0 -248 -86t-120 -213l-187 87q31 179 185 288.5t370 107.5q234 0 379 -131t145 -353q0 -50 -8 -97t-19.5 -86t-32.5 -81.5t-40 -74t-50 -73l-53 -69l-59 -73l-59 -73.5l-459 -537l3 -7h829v-191h-1130v183l581 657l53 64.5l50.5 62.5l43 57t40 60t30 59
t25 67t13.5 71.5t6 83.5q0 132 -78.5 214.5t-209.5 82.5z" />
    <glyph glyph-name="three" unicode="3" horiz-adv-x="1441" 
d="M730 1662h1q-143 0 -245.5 -87t-118.5 -215l-187 87q31 178 183.5 288t366.5 111q256 0 398.5 -123.5t142.5 -361.5q0 -134 -66.5 -244t-186.5 -172q138 -58 209.5 -174.5t71.5 -282.5q0 -237 -157 -375.5t-412 -138.5h-1q-216 0 -370 109.5t-185 287.5l187 87
q16 -128 120.5 -215.5t248.5 -86.5q152 0 242 90t90 236q0 185 -82.5 276t-255.5 91h-183v181h183q165 0 238 85t73 251q0 137 -78.5 216.5t-226.5 79.5z" />
    <glyph glyph-name="four" unicode="4" horiz-adv-x="1441" 
d="M1116 1820v-1208h250v-182h-250v-430h-235v430h-791v129l766 1261h260zM840 1415l-496 -803h537v874l-7 2z" />
    <glyph glyph-name="five" unicode="5" horiz-adv-x="1441" 
d="M418 798l-200 52l102 970h911v-209h-714l-59 -533q138 100 303 101q256 1 397.5 -162.5t141.5 -436.5q0 -279 -151 -442.5t-424 -163.5q-218 0 -356.5 95.5t-168.5 272.5l187 87q16 -127 105 -200t233 -73q166 0 252.5 116.5t86.5 305.5q0 175 -89 286.5t-250 111.5
q-136 0 -204.5 -40t-102.5 -138z" />
    <glyph glyph-name="six" unicode="6" horiz-adv-x="1441" 
d="M801 1846q101 0 208.5 -21.5t178.5 -53.5l-53 -179q-162 70 -334 70q-124 0 -216 -80.5t-135.5 -204.5t-43.5 -271v-111q79 77 186.5 120.5t228.5 43.5q157 0 273.5 -75t176 -203.5t59.5 -292.5q0 -275 -151.5 -444.5t-414.5 -169.5q-182 0 -318.5 97t-205.5 258t-69 361
v389q0 123 28.5 237.5t84 210.5t131 167.5t175 111.5t211.5 40zM742 985q-117 0 -203 -51.5t-133 -141.5v-126q0 -135 38.5 -248.5t121.5 -187.5t198 -74q109 0 185.5 60.5t110.5 155.5t34 216q0 180 -91.5 288.5t-260.5 108.5z" />
    <glyph glyph-name="seven" unicode="7" horiz-adv-x="1441" 
d="M1329 1820v-194l-628 -1626h-236l641 1636h-985v184h1208z" />
    <glyph glyph-name="eight" unicode="8" horiz-adv-x="1444" 
d="M1264 1355q0 -148 -82.5 -255t-209.5 -158q148 -51 245 -165.5t97 -276.5q0 -246 -160.5 -386t-417.5 -140q-131 0 -241 34.5t-191.5 99t-127.5 165.5t-46 227q0 164 100 279t253 165q-141 53 -221.5 161.5t-80.5 249.5q0 158 71 270t194.5 166.5t286.5 54.5
q238 0 384.5 -130t146.5 -361zM1080 505q0 149 -99.5 250t-247.5 101q-157 0 -262 -99t-105 -252q0 -158 104 -253.5t266 -95.5q149 0 246.5 99t97.5 250zM1028 1351q0 133 -83 222t-212 89q-139 0 -227.5 -86t-88.5 -225q0 -141 89.5 -231t229.5 -90q129 0 210.5 92
t81.5 229z" />
    <glyph glyph-name="nine" unicode="9" horiz-adv-x="1441" 
d="M626 156q189 0 292.5 138t103.5 362v135q-59 -88 -148 -134t-196 -46q-268 0 -415 164.5t-147 446.5q0 171 68.5 313t195.5 226.5t288 84.5q283 0 442.5 -175t159.5 -470v-532q0 -315 -175 -505t-469 -190q-208 0 -385 78l38 178q82 -40 161.5 -57t185.5 -17zM678 794
q124 0 213 56.5t131 151.5v236q0 203 -91 313.5t-256 110.5q-101 0 -176 -64t-111 -162t-36 -214q0 -89 20 -165t59 -135.5t102.5 -93.5t144.5 -34z" />
    <glyph glyph-name="colon" unicode=":" horiz-adv-x="627" 
d="M427 242v-242h-227v242h227zM427 1348v-243h-227v243h227z" />
    <glyph glyph-name="semicolon" unicode=";" horiz-adv-x="657" 
d="M448 1348v-243h-235v243h235zM457 265v-205l-187 -382h-135l87 394v193h235z" />
    <glyph glyph-name="less" unicode="&#x3c;" horiz-adv-x="1300" 
d="M1109 1035l-805 -334v-7l805 -329v-231l-1020 474v186l1020 472v-231z" />
    <glyph glyph-name="equal" unicode="=" horiz-adv-x="1441" 
d="M1232 1224v-185h-1042v185h1042zM1232 704v-185h-1042v185h1042z" />
    <glyph glyph-name="greater" unicode="&#x3e;" horiz-adv-x="1340" 
d="M170 1018v223l1070 -472v-187l-1070 -473v225l854 338v8z" />
    <glyph glyph-name="question" unicode="?" horiz-adv-x="1217" 
d="M438 126q0 67 35.5 108t95.5 41q61 0 97 -40.5t36 -108.5q0 -67 -36 -106.5t-97 -39.5t-96 39t-35 107zM690 512h-226q1 142 31 232q26 68 76.5 133t101.5 115t99 104t78.5 122t30.5 146q0 142 -75.5 218.5t-216.5 76.5q-82 0 -150 -30t-111.5 -91.5t-43.5 -142.5
l-208 56q0 101 68.5 192t188 147t256.5 56q240 0 379.5 -124t139.5 -352q0 -72 -19 -135.5t-50 -111.5t-69.5 -91.5t-79.5 -83.5l-77.5 -79t-66 -88t-42.5 -101q-14 -56 -14 -168z" />
    <glyph glyph-name="at" unicode="@" horiz-adv-x="2291" 
d="M2165 628q-4 -135 -41.5 -251.5t-105.5 -207.5t-175.5 -143t-242.5 -52q-91 0 -157 52t-95 146q-124 -198 -363 -198q-88 0 -153.5 46.5t-100.5 124.5t-48.5 174t-3.5 201q9 107 33.5 207t67.5 193.5t101 162.5t140.5 110.5t178.5 41.5q132 0 208 -29.5t177 -103.5l-5 -4
h8l-64 -732q-10 -115 18.5 -178t109.5 -63q85 0 152 43.5t108 116.5t63.5 160t25.5 183q7 184 -18.5 338t-86.5 279.5t-155.5 212.5t-231 134t-308.5 47q-163 0 -301.5 -54.5t-239.5 -150.5t-174 -227.5t-111.5 -285t-45.5 -323.5q0 -179 28.5 -331t90 -279.5t153 -217
t223.5 -139.5t295 -50q108 0 224 28t189 70l48 -134q-78 -49 -209.5 -80t-256.5 -31q-242 0 -429 85t-305 240.5t-178 367t-60 471.5q0 245 74.5 461.5t209.5 378.5t337 256.5t443 94.5t428.5 -85.5t305.5 -240.5t175.5 -366.5t49.5 -468.5zM900 520q-14 -177 26.5 -269.5
t133.5 -92.5q84 0 149.5 32t118.5 108q-2 42 2 68l59 673q-70 32 -143 32q-155 0 -237.5 -135t-108.5 -416z" />
    <glyph glyph-name="A" unicode="A" horiz-adv-x="1620" 
d="M1313 0l-160 479h-684l-163 -479h-251l631 1820h250l629 -1820h-252zM804 1509l-274 -824h563l-271 824h-18z" />
    <glyph glyph-name="B" unicode="B" horiz-adv-x="1614" 
d="M205 0v1820h595q595 0 595 -485q0 -135 -78 -230t-202 -147q150 -40 239.5 -152t89.5 -281q0 -258 -162.5 -391.5t-439.5 -133.5h-637zM440 857v-675h402q168 0 269.5 89.5t101.5 250.5q0 167 -92.5 251t-267.5 84h-413zM440 1039h368q159 0 257.5 76.5t98.5 220.5
q0 159 -93 229.5t-271 70.5h-360v-597z" />
    <glyph glyph-name="C" unicode="C" horiz-adv-x="1603" 
d="M846 156q110 0 191 20t135.5 61.5t89 96t58.5 132.5l183 -87q-48 -195 -223.5 -302t-432.5 -103q-208 0 -368 95.5t-244.5 257t-84.5 361.5v443q0 199 85 361t245 258t367 96q254 0 429.5 -108t222.5 -302l-183 -87q-24 78 -58 133t-88.5 97t-134.5 62.5t-189 20.5
t-198 -43.5t-145.5 -117t-87 -168t-30.5 -199.5v-446q0 -106 30 -200.5t86.5 -168.5t145.5 -118t199 -45z" />
    <glyph glyph-name="D" unicode="D" horiz-adv-x="1693" 
d="M205 0v1820h534q183 0 331.5 -54t249 -151t154.5 -233.5t54 -299.5v-347q0 -337 -216 -536t-594 -199h-513zM442 1636v-1454h276q282 0 429 149t147 404v351q0 253 -140 401.5t-415 148.5h-297z" />
    <glyph glyph-name="E" unicode="E" horiz-adv-x="1406" 
d="M1199 1033v-184h-758v-667h885v-182h-1121v1820h1107v-184h-871v-603h758z" />
    <glyph glyph-name="F" unicode="F" horiz-adv-x="1406" 
d="M1219 999v-184h-778v-815h-236v1820h1141v-184h-905v-637h778z" />
    <glyph glyph-name="G" unicode="G" horiz-adv-x="1730" 
d="M851 1846q254 0 429.5 -108.5t222.5 -302.5l-183 -87q-24 78 -58 133t-88.5 97t-134.5 63t-188 21q-145 0 -252.5 -72t-160 -189t-52.5 -261v-478q0 -138 59 -252.5t172.5 -184t260.5 -69.5q289 0 406 182v380h-403v182h639v-615q-80 -143 -251 -227t-391 -84
q-210 0 -376.5 89t-259 246t-92.5 353v476q0 152 50 282.5t140.5 224.5t222 147.5t288.5 53.5z" />
    <glyph glyph-name="H" unicode="H" horiz-adv-x="1797" 
d="M1587 1820v-1820h-237v824h-903v-824h-237v1820h237v-812h903v812h237z" />
    <glyph glyph-name="I" unicode="I" horiz-adv-x="727" 
d="M482 1820v-1820h-237v1820h237z" />
    <glyph glyph-name="J" unicode="J" horiz-adv-x="1391" 
d="M626 -26h-1q-218 0 -356.5 95.5t-168.5 272.5l187 87q16 -127 105 -200t234 -73q146 0 232.5 103t86.5 259v1302h236v-1302q0 -245 -153 -394.5t-402 -149.5z" />
    <glyph glyph-name="K" unicode="K" horiz-adv-x="1622" 
d="M1304 0l-623 871l-239 -262v-609h-237v1820h237v-912l820 912h282l-1 -10l-725 -788l779 -1016v-6h-293z" />
    <glyph glyph-name="L" unicode="L" horiz-adv-x="1384" 
d="M446 1820v-1638h878v-182h-1114v1820h236z" />
    <glyph glyph-name="M" unicode="M" horiz-adv-x="2207" 
d="M529 1820l571 -1499h22l574 1499h306v-1820h-236v1440h-7l-36 -120l-506 -1300h-211l-517 1298l-40 122h-8v-1440h-236v1820h324z" />
    <glyph glyph-name="N" unicode="N" horiz-adv-x="1797" 
d="M1587 1820v-1820h-247l-846 1342l-40 88h-7v-1430h-237v1820h247l850 -1348l36 -81h7v1429h237z" />
    <glyph glyph-name="O" unicode="O" horiz-adv-x="1741" 
d="M1601 1131v-443q0 -151 -55 -282.5t-151.5 -226.5t-235.5 -150t-301 -55q-211 0 -375.5 95t-253.5 257t-89 362v443q0 199 89 361.5t254 258t375 95.5q216 0 386 -94t263.5 -257t93.5 -364zM1365 688v446q0 149 -59.5 267.5t-176 189.5t-271.5 71q-150 0 -261 -72.5
t-165.5 -190.5t-54.5 -265v-446q0 -148 54.5 -267t165 -191.5t261.5 -72.5q157 0 273.5 71t175 190t58.5 270z" />
    <glyph glyph-name="P" unicode="P" horiz-adv-x="1621" 
d="M901 730h-460v-730h-236v1820h696q182 0 320 -63t216.5 -187.5t78.5 -294.5q0 -171 -78.5 -295.5t-216.5 -187t-320 -62.5zM441 1636v-724h460q181 0 284.5 96t103.5 264q0 167 -104 265.5t-284 98.5h-460z" />
    <glyph glyph-name="Q" unicode="Q" horiz-adv-x="1766" 
d="M1676 -87l-126 -135l-305 290q-172 -94 -387 -94q-211 0 -375.5 95t-253.5 257t-89 362v443q0 199 89 361.5t254 258t375 95.5q216 0 386 -94t263.5 -257t93.5 -364v-443q0 -100 -24.5 -193t-70 -172t-110.5 -143zM1365 688v446q0 149 -59.5 267.5t-176 189.5t-271.5 71
q-150 0 -261 -72.5t-165.5 -190.5t-54.5 -265v-446q0 -148 54.5 -267t165 -191.5t261.5 -72.5q27 0 53 2t50.5 6.5t48 11t45.5 14.5t42 18l-114 108l127 135l134 -128q121 145 121 364z" />
    <glyph glyph-name="R" unicode="R" horiz-adv-x="1627" 
d="M441 1636v-664h400q189 0 296.5 88t107.5 242t-108.5 244t-295.5 90h-400zM999 803l-1 -12l539 -785l-2 -6h-271l-513 790h-310v-790h-236v1820h636q186 0 328 -59.5t222.5 -177t80.5 -278.5q0 -103 -33.5 -189t-96 -149t-149 -104.5t-194.5 -59.5z" />
    <glyph glyph-name="S" unicode="S" horiz-adv-x="1577" 
d="M1195 459v1q0 66 -22 119t-56.5 89t-90.5 65.5t-111 48t-131 36.5q-284 69 -436.5 202.5t-152.5 328.5q0 150 83.5 265t219.5 174t300 59q251 0 416.5 -115t204.5 -295l-187 -82q-37 157 -149.5 232.5t-284.5 75.5q-167 0 -266.5 -80.5t-99.5 -230.5q0 -46 13.5 -85.5
t34 -69t55.5 -56t69 -44.5t83 -36t88 -29.5t94 -25.5q276 -71 419.5 -208.5t143.5 -336.5q0 -116 -50.5 -210t-137 -153.5t-198.5 -91.5t-239 -32q-259 0 -433 109t-219 301l218 70q20 -138 140.5 -218t293.5 -80q170 0 279 78t109 225z" />
    <glyph glyph-name="T" unicode="T" horiz-adv-x="1539" 
d="M1469 1820v-184h-585v-1636h-236v1636h-578v184h1399z" />
    <glyph glyph-name="U" unicode="U" horiz-adv-x="1707" 
d="M1522 1820v-1262q0 -264 -186 -423.5t-485 -159.5q-304 0 -485 157t-181 426v1262h236v-1262q0 -183 113.5 -292.5t316.5 -109.5q207 0 321 109t114 293v1262h236z" />
    <glyph glyph-name="V" unicode="V" horiz-adv-x="1623" 
d="M297 1820l484 -1422l24 -103h14l24 101l484 1424h266l-666 -1820h-231l-666 1820h267z" />
    <glyph glyph-name="W" unicode="W" horiz-adv-x="2213" 
d="M316 1820l270 -1274l25 -166l11 -1l32 165l331 1246h241l332 -1244l34 -170h12l25 170l266 1274h258l-430 -1820h-233l-343 1303l-36 163h-13l-36 -163l-343 -1303h-230l-429 1820h256z" />
    <glyph glyph-name="X" unicode="X" horiz-adv-x="1650" 
d="M384 1820l349 -579l92 -164l92 165l350 578h280l-579 -892l602 -928h-280l-363 584l-102 187l-102 -188l-363 -583h-280l603 928l-579 892h280z" />
    <glyph glyph-name="Y" unicode="Y" horiz-adv-x="1619" 
d="M329 1820l437 -837l42 -108h6l38 108l438 837h279l-638 -1151v-669h-245v674l-636 1146h279z" />
    <glyph glyph-name="Z" unicode="Z" horiz-adv-x="1535" 
d="M1374 1644l-986 -1437v-25h1027v-182h-1295v182l983 1428v26h-969v184h1240v-176z" />
    <glyph glyph-name="bracketleft" unicode="[" horiz-adv-x="690" 
d="M660 2060v-174h-235v-2082h235v-174h-461v2430h461z" />
    <glyph glyph-name="backslash" unicode="\" horiz-adv-x="1057" 
d="M819 -156l-760 1976h212l760 -1976h-212z" />
    <glyph glyph-name="bracketright" unicode="]" horiz-adv-x="690" 
d="M29 1886v174h462v-2430h-462v174h236v2082h-236z" />
    <glyph glyph-name="asciicircum" unicode="^" horiz-adv-x="1070" 
d="M295 911h-219l374 909h168l372 -909h-216l-223 621h-37z" />
    <glyph glyph-name="underscore" unicode="_" horiz-adv-x="1163" 
d="M1159 -20v-172h-1154v172h1154z" />
    <glyph glyph-name="grave" unicode="`" horiz-adv-x="777" 
d="M389 1898l198 -333h-177l-273 325l4 8h248z" />
    <glyph glyph-name="a" unicode="a" horiz-adv-x="1372" 
d="M599 170q122 0 230.5 58t140.5 138v300h-266q-69 0 -130 -16t-110.5 -48t-78 -85.5t-28.5 -121.5q0 -106 62 -165.5t180 -59.5zM697 1378q226 0 363 -118.5t137 -335.5v-652q0 -157 55 -272h-214q-55 98 -68 172q-66 -83 -173 -140.5t-234 -57.5q-209 0 -321 112
t-112 314q0 93 30 166t81.5 120.5t124 78.5t153 44t174.5 13h277v104q0 125 -75.5 196.5t-211.5 71.5q-244 0 -391 -134l-86 150q172 168 491 168z" />
    <glyph glyph-name="b" unicode="b" horiz-adv-x="1445" 
d="M1325 751v-166q0 -128 -34 -238.5t-98.5 -194t-166 -131t-229.5 -47.5q-268 0 -398 210l-20 -184h-199v1910h236v-718q132 186 379 186q133 0 236.5 -50.5t166.5 -138t95 -199t32 -239.5zM1089 585v166q0 88 -19.5 163.5t-60 138.5t-111.5 99t-166 36q-215 0 -316 -206
v-606q101 -212 319 -212q92 0 161 32.5t110.5 90.5t62 133t20.5 165z" />
    <glyph glyph-name="c" unicode="c" horiz-adv-x="1318" 
d="M715 156h1q127 1 216.5 68.5t109.5 179.5l15 6l160 -80q-14 -68 -52 -130t-99 -113.5t-152 -82t-199 -30.5q-140 0 -253.5 47.5t-187.5 131t-114 195.5t-40 242v172q0 130 40.5 242t115 195.5t187.5 131t252 47.5h3q107 0 197.5 -30.5t151.5 -82t99 -113.5t52 -130
l-160 -80l-15 6q-20 111 -110 178t-218 68q-93 0 -163.5 -35t-112 -96t-61.5 -136.5t-20 -164.5v-172q0 -90 19.5 -166t60.5 -137.5t111.5 -96t165.5 -34.5z" />
    <glyph glyph-name="d" unicode="d" horiz-adv-x="1445" 
d="M120 751v-166q0 -128 34 -238.5t98.5 -194t166 -131t229.5 -47.5q268 0 398 210l19 -184h200v1910h-236v-718q-132 186 -379 186q-133 0 -236.5 -50.5t-166.5 -138t-95 -199t-32 -239.5zM356 585v166q0 88 19.5 163.5t60 138.5t111.5 99t166 36q215 0 316 -206v-606
q-101 -212 -319 -212q-92 0 -161 32.5t-110.5 90.5t-62 133t-20.5 165z" />
    <glyph glyph-name="e" unicode="e" horiz-adv-x="1341" 
d="M738 -26q-144 0 -262 48t-195 131.5t-119 195.5t-42 241v165q0 166 72 308t206 228.5t301 86.5q542 0 542 -638v-120h-868v-76q0 -78 21.5 -146t64 -123t114.5 -87t165 -32q244 0 391 134l86 -150q-170 -166 -477 -166zM699 1194q-139 0 -223.5 -91t-102.5 -223v-76h632
v80q0 141 -78 225.5t-228 84.5z" />
    <glyph glyph-name="f" unicode="f" horiz-adv-x="875" 
d="M489 0h-236v1180h-213v152l213 20v152q0 121 30 210.5t87 142.5t132.5 78.5t172.5 26.5q91 1 200 -22l-14 -178q-92 14 -150 13q-54 -1 -93.5 -14t-69 -43t-44.5 -83.5t-15 -130.5v-152h305v-172h-305v-1180z" />
    <glyph glyph-name="g" unicode="g" horiz-adv-x="1450" 
d="M135 545v186q0 105 19.5 200t61.5 177t103 142t149.5 94t195.5 34q252 0 390 -202l10 176h206v-1410q0 -236 -149 -362t-429 -126q-98 0 -211 27t-199 73l38 181q72 -38 172.5 -61t197.5 -23q179 0 261.5 71t82.5 220v204q-134 -172 -373 -172q-128 0 -229.5 44
t-165.5 122t-97.5 181t-33.5 224zM371 731v-186q0 -172 86.5 -276.5t266.5 -104.5q208 0 310 194v642q-105 188 -308 188q-78 0 -139 -25t-101 -67t-66.5 -101.5t-37.5 -124.5t-11 -139z" />
    <glyph glyph-name="h" unicode="h" horiz-adv-x="1456" 
d="M426 1910v-739q72 99 173.5 153t223.5 54q221 0 339.5 -122.5t118.5 -367.5v-888h-236v890q0 152 -73.5 225t-222.5 73q-219 0 -323 -164v-1024h-236v1910h236z" />
    <glyph glyph-name="i" unicode="i" horiz-adv-x="646" 
d="M191 1770q0 67 35 108t96 41t97 -40.5t36 -108.5q0 -44 -16 -77.5t-46.5 -51t-70.5 -17.5q-61 0 -96 39.5t-35 106.5zM441 1352v-1352h-236v1352h236z" />
    <glyph glyph-name="j" unicode="j" horiz-adv-x="653" 
d="M198 1770q0 67 35 108t96 41t97 -40.5t36 -108.5q0 -44 -16 -77.5t-46.5 -51t-70.5 -17.5q-61 0 -96 39.5t-35 106.5zM216 1352h236v-1423q0 -171 -73.5 -285t-203 -156.5t-297.5 -11.5v184q174 -25 256 32t82 227v1433z" />
    <glyph glyph-name="k" unicode="k" horiz-adv-x="1312" 
d="M1013 0l-447 663l-150 -139v-524h-236v1910h236v-1135l48 61l483 516h294l-536 -563l582 -789h-274z" />
    <glyph glyph-name="l" unicode="l" horiz-adv-x="636" 
d="M436 1910v-1910h-236v1910h236z" />
    <glyph glyph-name="m" unicode="m" horiz-adv-x="2230" 
d="M180 1352h220l7 -197q140 223 405 223q133 0 227 -63t141 -187q66 119 171 184.5t242 65.5q206 0 321.5 -127t115.5 -372v-879h-237v881q0 154 -61 230.5t-212 76.5q-127 0 -205.5 -71.5t-91.5 -177.5v-10v-929h-237v881q0 307 -274 307q-215 0 -296 -197v-991h-236v1352
z" />
    <glyph glyph-name="n" unicode="n" horiz-adv-x="1447" 
d="M180 1352h220l7 -221q68 119 170.5 183t231.5 64q222 0 340 -115.5t118 -348.5v-914h-236v909q0 149 -71.5 214t-224.5 65q-223 0 -319 -194v-994h-236v1352z" />
    <glyph glyph-name="o" unicode="o" horiz-adv-x="1451" 
d="M120 581v188q0 171 71 308.5t209.5 219t323.5 81.5q141 0 256.5 -47t191.5 -129t117.5 -193t41.5 -240v-188q0 -129 -41 -239.5t-117 -192.5t-191 -128.5t-255 -46.5q-141 0 -256 46.5t-191.5 128t-118 192.5t-41.5 240zM357 769v-188q0 -87 21.5 -162t65 -135t116 -94
t167.5 -34q94 0 166 34.5t115.5 94.5t65 134.5t21.5 161.5v188q0 68 -13.5 129.5t-43 116t-72 94t-105 62.5t-137.5 23q-93 0 -165 -34.5t-115.5 -95t-65 -135t-21.5 -160.5z" />
    <glyph glyph-name="p" unicode="p" horiz-adv-x="1475" 
d="M1345 601v166q0 128 -34 238.5t-98.5 194t-166 131t-229.5 47.5q-268 0 -398 -210l-20 184h-199v-1870h236v678q132 -186 379 -186q133 0 236.5 50.5t166.5 138t95 199t32 239.5zM1109 767v-166q0 -88 -19.5 -163.5t-60 -138.5t-111.5 -99t-166 -36q-215 0 -316 206v606
q101 212 319 212q92 0 161 -32.5t110.5 -90.5t62 -133t20.5 -165z" />
    <glyph glyph-name="q" unicode="q" horiz-adv-x="1475" 
d="M130 601v166q0 128 34 238.5t98.5 194t166 131t229.5 47.5q268 0 398 -210l20 184h199v-1870h-236v678q-132 -186 -379 -186q-133 0 -236.5 50.5t-166.5 138t-95 199t-32 239.5zM366 767v-166q0 -88 19.5 -163.5t60 -138.5t111.5 -99t166 -36q215 0 316 206v606
q-101 212 -319 212q-92 0 -161 -32.5t-110.5 -90.5t-62 -133t-20.5 -165z" />
    <glyph glyph-name="r" unicode="r" horiz-adv-x="926" 
d="M896 1366l-46 -221q-173 24 -275 -16.5t-159 -172.5v-956h-236v1352h220l13 -217q76 138 197 203t286 28z" />
    <glyph glyph-name="s" unicode="s" horiz-adv-x="1331" 
d="M675 -26l1 3q-219 0 -360.5 88.5t-175.5 219.5l174 87q29 -104 127.5 -160t233.5 -56q134 0 212 58t78 150q0 38 -10.5 69t-32.5 53.5t-46.5 39t-63.5 30t-71.5 22t-81.5 18.5q-247 52 -371 143.5t-124 238.5q0 119 72 212t186 140.5t247 47.5h1q198 0 331 -85.5
t165 -208.5l-174 -87q-22 90 -116 143.5t-207 53.5q-118 0 -193.5 -54.5t-75.5 -154.5q0 -37 8.5 -66t29.5 -50t41 -34.5t59 -25.5t67 -18.5t80 -17.5q7 -1 10 -2q253 -52 379.5 -147t126.5 -243q0 -127 -74 -221.5t-192 -140t-260 -45.5z" />
    <glyph glyph-name="t" unicode="t" horiz-adv-x="850" 
d="M289 1679h196v-327h297v-172h-297v-831q0 -181 155 -182q62 -1 155 29v-177q-35 -20 -99.5 -32.5t-128.5 -12.5q-158 0 -238 97.5t-80 277.5v831h-214v132l214 40z" />
    <glyph glyph-name="u" unicode="u" horiz-adv-x="1442" 
d="M1262 0h-220l-7 221q-68 -119 -170.5 -183t-231.5 -64q-222 0 -340 115.5t-118 348.5v914h246v-909q0 -149 69 -214t217 -65q223 0 319 194v994h236v-1352z" />
    <glyph glyph-name="v" unicode="v" horiz-adv-x="1307" 
d="M1006 1352l-315 -973l-24 -118h-22l-28 118l-316 973h-241l497 -1352h187l503 1352h-241z" />
    <glyph glyph-name="w" unicode="w" horiz-adv-x="1919" 
d="M1613 1352l-222 -940l-22 -133h-8l-27 135l-275 918h-198l-280 -922l-26 -131h-8l-21 131l-219 942h-247l383 -1352h198l284 924l34 135h9l33 -135l276 -924h199l383 1352h-246z" />
    <glyph glyph-name="x" unicode="x" horiz-adv-x="1287" 
d="M976 1352l-265 -426l-61 -112h-8l-61 112l-266 426h-242l458 -668l-471 -684h242l268 435l69 126h9l68 -124l268 -437h243l-471 684l459 668h-239z" />
    <glyph glyph-name="y" unicode="y" horiz-adv-x="1287" 
d="M990 1352l-346 -1091h-11l-26 118l-316 973h-241l486 -1330l-80 -210q-28 -72 -70.5 -115.5t-96 -56.5t-110 -8t-123.5 27v-172q421 -126 574 231l607 1634h-247z" />
    <glyph glyph-name="z" unicode="z" horiz-adv-x="1294" 
d="M1152 1185l-749 -983v-20h791v-182h-1074v172l741 971v25h-733v184h1024v-167z" />
    <glyph glyph-name="braceleft" unicode="{" horiz-adv-x="870" 
d="M839 -308l-40 -137q-221 62 -335 198.5t-114 372.5v256q0 147 -65.5 227t-195.5 80v163q130 0 195.5 78.5t65.5 227.5v257q0 237 113.5 373t335.5 198l40 -136q-253 -81 -253 -435v-257q0 -133 -53.5 -232.5t-158.5 -155.5q104 -56 158 -157t54 -231v-256
q0 -172 60 -281.5t193 -152.5z" />
    <glyph glyph-name="bar" unicode="|" horiz-adv-x="633" 
d="M428 1820v-2158h-223v2158h223z" />
    <glyph glyph-name="braceright" unicode="}" horiz-adv-x="870" 
d="M68 -445l-42 137q254 84 254 434v256q0 283 230 388q-230 102 -230 388v257q0 352 -254 435l42 136q145 -41 242 -111t151.5 -185.5t54.5 -274.5v-257q0 -306 262 -306v-163q-132 0 -197 -79.5t-65 -227.5v-256q0 -234 -115 -372t-333 -199z" />
    <glyph glyph-name="asciitilde" unicode="~" horiz-adv-x="1738" 
d="M1414 938l166 -13q0 -107 -48.5 -202t-137 -153.5t-194.5 -58.5q-78 0 -153.5 30.5t-135 73.5l-117.5 86.5t-124 74t-131 30.5q-90 0 -151.5 -67.5t-61.5 -158.5l-166 12q0 166 108 284t271 118q62 0 133.5 -30.5t137 -74l130 -86.5t133.5 -73.5t127 -30.5q88 0 151 74
t63 165z" />
    <glyph glyph-name="uni00A0" unicode="&#xa0;" horiz-adv-x="767" 
 />
    <glyph glyph-name="uni0E01" unicode="&#xe01;" horiz-adv-x="1480" 
d="M1300 1028v-1028h-210v1028v1q0 55 -23.5 98t-61 69t-89.5 43t-103.5 23.5t-108.5 6.5q-62 0 -121.5 -9t-120 -30.5t-102 -64t-52.5 -101.5q112 -46 184 -103l-1 -961h-210v935q-63 31 -181 56q13 109 69.5 196t141 140t185 80.5t208.5 27.5q104 0 207 -26.5t191 -75
t143 -128.5t55 -177z" />
    <glyph glyph-name="uni0E02" unicode="&#xe02;" horiz-adv-x="1426" 
d="M614 366v-1q0 -96 50 -147.5t137 -51.5h48q84 0 135.5 52.5t51.5 147.5v1048h210v-1062q0 -160 -113 -256t-274 -96h-69q-103 0 -188.5 38t-141.5 120.5t-56 195.5v205q0 23 3 45t6 39.5t12.5 39.5t13 33.5t18.5 34t18.5 29.5t22.5 31.5t22 27.5t25 29.5t23 27.5
q27 36 42.5 61t29.5 67t14 84q-1 60 -43 109t-101 57q41 -62 41 -134q0 -98 -70.5 -168t-168.5 -70t-167.5 70t-69.5 168q0 96 69 171.5t167 106.5q152 33 261.5 1t171.5 -113.5t64 -193.5q3 -148 -83 -264q-67 -89 -89 -164.5t-22 -202.5v-115zM312 1025q49 0 82.5 33.5
t33.5 81.5t-33.5 81.5t-82.5 33.5q-48 0 -81 -33.5t-33 -81.5t33 -81.5t81 -33.5z" />
    <glyph glyph-name="uni0E03" unicode="&#xe03;" horiz-adv-x="1454" 
d="M1274 1412v-1060q0 -160 -113 -256t-274 -96h-44q-103 0 -188.5 38t-141.5 120.5t-56 195.5v121q0 68 27.5 135.5t66.5 125l78.5 116t66.5 129.5t27 144q0 42 -28.5 86t-78.5 69l-124 -89l-153 110q-65 -19 -111 -99q44 17 86 17q98 0 168.5 -70t70.5 -168t-70.5 -168.5
t-168.5 -70.5q-92 0 -160.5 63.5t-76.5 155.5h-1q-35 255 105 389q32 30 70.5 51t57.5 26.5t29 6.5l154 -116l155 116q99 -37 164 -119.5t66 -179.5q1 -78 -20.5 -147.5t-52.5 -123l-62 -106t-53 -119t-22 -140.5v-133v-1q0 -96 50 -147.5t137 -51.5h23q84 0 135.5 52.5
t51.5 147.5v1046h210zM314 1096q-48 0 -81.5 -33.5t-33.5 -81.5q0 -49 33.5 -82t81.5 -33q49 0 82 33t33 82q0 48 -33 81.5t-82 33.5z" />
    <glyph glyph-name="uni0E04" unicode="&#xe04;" horiz-adv-x="1577" 
d="M793 1431q81 0 163 -15t162 -49t141.5 -83t99.5 -122.5t38 -161.5v-1001h-210v1009q0 67 -38 119t-99 81t-126.5 43t-130.5 14q-59 0 -125 -16.5t-127 -47t-101 -83t-40 -117.5v-477l-8 -84l30 86l142 282l29 57q70 106 201 106q110 0 177 -66.5t67 -175.5t-67 -176.5
t-177 -67.5q-124 0 -198 104q-39 -70 -105.5 -222t-90.5 -262v-106h-210v1021q0 102 55 183.5t144 129.5t193 73t211 25zM794 844q-114 0 -114 -115t114 -115q116 0 116 115t-116 115z" />
    <glyph glyph-name="uni0E05" unicode="&#xe05;" horiz-adv-x="1577" 
d="M400 1004v-483l-10 -90l32 92l142 282l29 57q70 107 201 107q110 0 177 -67t67 -176q0 -110 -67 -177t-177 -67q-124 0 -198 104q-39 -70 -105.5 -222t-90.5 -262v-101h-210v1021q0 151 91 248t271 169q132 -131 240 -181q104 53 239 182q165 -63 265.5 -175.5
t100.5 -262.5v-1001h-210v1009q0 203 -139 259l-255 -178l-260 174q-133 -57 -133 -261zM794 841q-114 0 -114 -115t114 -115q116 0 116 115t-116 115z" />
    <glyph glyph-name="uni0E06" unicode="&#xe06;" horiz-adv-x="1576" 
d="M1186 1414h210v-1414h-213q0 77 -33.5 151.5t-92.5 134.5t-149.5 97t-195.5 37v-285q0 -51 -40.5 -89t-93.5 -54.5t-104 -16.5q-111 0 -193.5 76t-82.5 189q0 130 85 214t220 92v105q15 44 46.5 94.5t62 92.5t59.5 88t45 97t13 103q-2 42 -30 86t-77 69l-124 -89
l-152 110q-66 -20 -112 -98q42 16 87 16q98 0 168 -70t70 -168t-70 -168t-168 -70q-93 0 -161.5 63t-76.5 155h-1q-35 255 105 389q32 30 70.5 51t57.5 26.5t29 6.5l154 -116l155 116q97 -36 160 -118t70 -181q4 -68 -18.5 -138t-52.5 -119.5t-61.5 -116.5t-41.5 -123l2 -95
q148 0 275 -60t200 -168v1098zM321 1088q-43 0 -74 -31t-31 -75t30.5 -74t74.5 -30t74.5 30t30.5 74t-30.5 75t-74.5 31zM461 95q22 1 30.5 21.5t7.5 67.5v237q-71 0 -116.5 -44.5t-45.5 -117.5v-19q2 -53 36.5 -99t87.5 -46z" />
    <glyph glyph-name="uni0E07" unicode="&#xe07;" horiz-adv-x="1112" 
d="M932 1189v-1051h-3q-61 -79 -180 -138h-195q-116 196 -275 427t-254 317l90 174q75 -66 194.5 -226t205 -290.5t140.5 -222.5h50q13 1 17 11v760q-11 -2 -46 -2q-109 0 -175.5 66.5t-66.5 176.5t66.5 176.5t175.5 66.5q113 0 184.5 -63.5t71.5 -179.5v-2zM561 1191
q0 -115 115 -115t115 115t-115 115t-115 -115z" />
    <glyph glyph-name="uni0E08" unicode="&#xe08;" horiz-adv-x="1407" 
d="M1227 1011v-872l-13 -13.5t-25.5 -25t-34 -29.5t-50 -35.5t-63.5 -35.5h-173l-195 522q-63 -48 -155 -48q-109 0 -175.5 67t-66.5 177q0 100 66 161t176 61q78 0 135.5 -29t86.5 -81l236 -646h41v812q0 92 -50 155t-130 90t-185 27q-175 0 -281 -71t-129 -206l-151 93
q20 78 72.5 144t127 111t167.5 70t194 25q85 0 167 -16.5t156 -51.5t130 -84.5t89 -119t33 -151.5zM518 602q115 0 115 116q0 114 -115 114t-115 -114q0 -116 115 -116z" />
    <glyph glyph-name="uni0E09" unicode="&#xe09;" horiz-adv-x="1585" 
d="M363 525q114 0 114 115q0 116 -114 116t-114 -116q0 -115 114 -115zM1203 108q63 0 95.5 33t32.5 95q0 129 -128 129q-63 0 -96 -33t-33 -96q0 -62 33 -95t96 -33zM1393 1002v-466q-13 -29 -56 -68q60 -32 94 -92.5t34 -139.5q0 -117 -72 -189t-190 -72q-117 0 -189.5 72
t-72.5 189q0 69 36 133q-77 -13 -155 -59t-136 -122t-67 -160v-29l-210 1v400q-10 -2 -46 -2q-110 0 -176.5 66.5t-66.5 175.5q0 111 66.5 177.5t176.5 66.5q111 0 182.5 -67t71.5 -177v-332q107 108 255.5 169t290.5 54q13 13 20 29v431q-5 72 -43.5 127t-98 87t-127 47.5
t-138.5 15.5q-79 0 -141 -9.5t-129 -36.5t-114.5 -85.5t-68.5 -145.5l-148 95q27 92 87 161t142.5 109t175.5 59t196 19q114 0 219.5 -25t196.5 -74.5t146 -135.5t55 -197z" />
    <glyph glyph-name="uni0E0A" unicode="&#xe0a;" horiz-adv-x="1429" 
d="M1199 1555h189q0 -290 -360 -384q218 -129 218 -277v-542q0 -160 -113 -256t-274 -96h-69q-103 0 -188.5 38t-141.5 120.5t-56 195.5v205q0 44 8.5 82.5t29.5 76.5t35 59t47.5 63t43.5 56q27 36 42.5 61t30 67t13.5 84q-1 60 -43 109t-101 57q41 -62 41 -134
q0 -98 -70.5 -168t-168.5 -70t-167.5 70t-69.5 168q0 68 44 138q21 34 52.5 62.5t61.5 44t48.5 23t29.5 10.5q210 52 352 -40.5t145 -265.5q2 -150 -83 -264q-67 -89 -89 -164.5t-22 -202.5v-115v-1q0 -96 50 -147.5t137 -51.5h48q84 0 135.5 52.5t51.5 147.5v509
q0 169 -198 259v95q178 43 266.5 121t94.5 205zM312 1025q49 0 82.5 33.5t33.5 81.5t-33.5 81.5t-82.5 33.5q-48 0 -81 -33.5t-33 -81.5t33 -81.5t81 -33.5z" />
    <glyph glyph-name="uni0E0B" unicode="&#xe0b;" horiz-adv-x="1463" 
d="M321 1098q-48 0 -81.5 -34t-33.5 -82t33.5 -81t81.5 -33q49 0 82 32.5t33 81.5q0 48 -33.5 82t-81.5 34zM1281 894v-542q-1 -107 -55.5 -188.5t-141.5 -122.5t-191 -41h-44q-103 0 -188.5 38t-141.5 120.5t-56 195.5v122q0 67 29 135t69.5 125.5l80.5 116t65.5 129.5
t21.5 144q-3 43 -30.5 87t-76.5 68l-124 -89l-152 110q-66 -20 -112 -98q42 16 87 16q98 0 168 -70t70 -168t-70 -168t-168 -70q-93 0 -161.5 63t-76.5 155h-1q-35 255 105 389q32 30 70.5 51t57.5 26.5t29 6.5l154 -116l155 116q97 -36 160 -118t70 -181
q5 -78 -14.5 -147.5t-51.5 -123l-64.5 -105.5t-56 -119t-23.5 -141v-134v-1q0 -95 50 -147t138 -52h22q84 0 134.5 52.5t53.5 147.5v509q1 83 -46.5 146.5t-136.5 100.5q0 40 -16 107q177 42 266 118t95 192v16h189v-21q0 -135 -93.5 -226.5t-266.5 -136.5
q218 -128 219 -277z" />
    <glyph glyph-name="uni0E0C" unicode="&#xe0c;" horiz-adv-x="2126" 
d="M537 336q-114 0 -114 -115q0 -116 114 -116t114 116q0 115 -114 115zM1090 541v474v1q0 68 -35 119.5t-93 79.5t-122.5 41t-135.5 13q-62 0 -121.5 -9t-120.5 -30.5t-102.5 -64t-52.5 -101.5q112 -46 184 -103v-500q15 3 46 3q109 0 176 -67t67 -176q0 -111 -66.5 -177
t-176.5 -66q-111 0 -182.5 66.5t-71.5 176.5l-2 714q-63 31 -181 56q13 109 69.5 196t141 140t185 80.5t208.5 27.5q104 0 207 -26.5t191 -75t143 -128.5t55 -177v-489q137 0 264 -64t172 -157v1096h210v-1414h-212q0 116 -48 209t-148 150t-238 57v-281q0 -51 -38 -89
t-85 -54.5t-90 -16.5q-93 0 -165.5 76.5t-72.5 188.5q0 130 67 211.5t174 89.5zM1064 95q27 1 26 89v232q-52 0 -83.5 -42t-31.5 -115v-19q2 -52 28 -98.5t61 -46.5z" />
    <glyph glyph-name="uni0E0D" unicode="&#xe0d;" horiz-adv-x="2134" 
d="M537 336q-114 0 -114 -115q0 -116 114 -116t114 116q0 115 -114 115zM1300 379q1 -97 57 -155t143 -58h47q84 0 140.5 59t59.5 154v1033h210v-1047q-1 -108 -55 -192.5t-141.5 -128.5t-190.5 -44h-94q-101 0 -186 41.5t-140.5 126t-59.5 198.5v649v1q0 68 -35 119.5
t-93 79.5t-122.5 41t-135.5 13q-62 0 -121.5 -9t-120.5 -30.5t-102.5 -64t-52.5 -101.5q112 -46 184 -103v-500q15 3 46 3q109 0 176 -67t67 -176q0 -111 -66.5 -177t-176.5 -66q-111 0 -182.5 66.5t-71.5 176.5l-2 714q-63 31 -181 56q13 109 69.5 196t141 140t185 80.5
t208.5 27.5q104 0 207 -26.5t191 -75t143 -128.5t55 -177v-649zM1774 -131h190q-44 -199 -182 -299t-346 -100q-49 0 -96 6t-99 23t-91 43.5t-64.5 72t-25.5 104.5q0 97 57 154t154 57t153.5 -57t56.5 -154q0 -67 -36 -118q137 -9 214.5 55.5t114.5 212.5zM1271 -172
q-110 0 -110 -109t110 -109q109 0 109 109t-109 109z" />
    <glyph glyph-name="uni0E0E" unicode="&#xe0e;" horiz-adv-x="1550" 
d="M774 1435q104 0 207 -26.5t191 -75t143 -128.5t55 -177v-1422q-64 -99 -210 -100q-43 12 -133.5 92.5t-122.5 99.5q-63 -95 -157 -144t-207 -49h-15q-70 33 -102.5 102t-16.5 142q21 87 97 131t170 44q78 0 173 -44q8 28 11.5 57t2.5 43v15h139l-1 -11q-2 -11 -4.5 -28
t-6.5 -38.5t-11.5 -49t-16.5 -53.5q30 -21 60 -44.5t46.5 -37.5l50 -43l44.5 -39v1364v1q0 68 -35 119.5t-93 79.5t-122.5 41t-135.5 13q-62 0 -121.5 -9t-120.5 -30.5t-102.5 -64t-52.5 -101.5q49 -20 115.5 -59.5t104.5 -69.5v-714q0 -110 -71.5 -176.5t-182.5 -66.5
q-110 0 -176.5 66t-66.5 177q0 109 67 176t176 67q31 0 46 -3v457q-95 46 -219 73q13 109 69.5 196t141 140t185 80.5t208.5 27.5zM457 221q0 115 -114 115t-114 -115q0 -116 114 -116t114 116zM557 -368q158 12 237 132q-67 31 -121 31q-125 0 -142 -75q-6 -23 2 -48
t24 -40z" />
    <glyph glyph-name="uni0E0F" unicode="&#xe0f;" horiz-adv-x="1550" 
d="M774 1432q104 0 207 -26.5t191 -75t143 -128.5t55 -177v-1421q-64 -99 -210 -100v1q-24 1 -55 31t-67.5 76.5t-52.5 61.5l-116 -169h-30q-21 0 -40 12t-29.5 26t-30.5 43q-12 18 -33 46q-115 -130 -321 -130h-12q-65 27 -97.5 85.5t-18.5 120.5q15 80 89.5 118.5
t167.5 38.5q94 0 167 -47q23 61 23 102h119q0 -9 -2 -29.5t-14 -67.5t-32 -88q12 -13 60 -80l114 151l28 3q25 0 47 -19t77 -82q25 -31 59 -67v8v1363v2q0 68 -35 119t-93 79t-122.5 41t-135.5 13q-62 0 -121.5 -9t-120.5 -30.5t-102.5 -64t-52.5 -101.5q49 -20 115.5 -59.5
t104.5 -69.5v-713q0 -110 -71.5 -177t-182.5 -67q-110 0 -176.5 66.5t-66.5 177.5q0 109 66.5 175.5t176.5 66.5q36 0 46 -2v456q-99 48 -219 74q13 109 69.5 196t141 139.5t185 80t208.5 27.5zM457 219q0 115 -114 115t-114 -115q0 -117 114 -117t114 117zM399 -380
q144 3 224 95q-49 33 -109 33q-61 0 -98 -17t-43 -47q-8 -40 26 -64z" />
    <glyph glyph-name="uni0E10" unicode="&#xe10;" horiz-adv-x="1309" 
d="M575 1262q-99 0 -175 -57.5t-80 -151.5q22 0 72 1q282 2 420 -21q315 -55 315 -261v-633l-13 -13.5t-25.5 -25t-34 -29.5t-50 -35.5t-63.5 -35.5h-172l-180 374q-68 -68 -176 -68q-109 0 -176 67t-67 177q0 109 66.5 175.5t176.5 66.5q82 0 141 -38.5t86 -105.5l236 -464
h41v584q-4 29 -29.5 53t-69 40t-95.5 27.5t-116.5 17.5t-122 10t-123.5 4.5t-110.5 0.5t-91.5 -1t-59 -1q0 141 61 258t170.5 185.5t243.5 68.5q34 0 67 -3t72.5 -11.5l60 -13t69.5 -18t62 -16.5q27 -6 53.5 -6.5t46.5 4t39.5 12.5t32 15.5t23.5 16.5t14.5 12.5l5.5 5.5
l-1 -1l79 -143q-51 -59 -145 -77t-188 6q-2 0 -31.5 8t-42.5 11l-45.5 10t-55 10t-55 6t-61.5 3zM413 435q114 0 114 115t-114 115q-116 0 -116 -115t116 -115zM950 -501l-13 82l-1 11q-86 -3 -128.5 45t-42.5 125q0 75 47 124t124 49q86 0 138.5 -41t52.5 -119v-316
q-32 -47 -84.5 -75t-115.5 -23q-25 2 -80 44.5t-77 45.5l-133 -89q-8 0 -15.5 1.5t-15 6.5l-12 8t-12.5 12.5l-10.5 12.5t-12 16.5t-12.5 16.5q-4 5 -13 19.5t-15 22.5q-107 -118 -289 -118h-11q-58 25 -86 76t-18 109q9 50 46.5 83.5t84 46.5t99.5 13q83 0 151 -43
q8 22 13 45.5t6 35.5l1 12h108q-4 -84 -44 -168q9 -10 55 -72l101 73q19 9 53.5 -7t76.5 -43.5t61 -34.5zM241 -534q131 3 203 86q-47 30 -99 30q-53 0 -86.5 -15.5t-39.5 -42.5q-4 -16 2.5 -32.5t19.5 -25.5zM1025 -238q0 89 -89 89q-86 0 -86 -89q0 -46 20.5 -66.5
t66.5 -20.5t67 20.5t21 66.5z" />
    <glyph glyph-name="uni0E11" unicode="&#xe11;" horiz-adv-x="1721" 
d="M666 499v-121l-6 -117l28 119q6 25 39 128t93.5 263t127 306t144 251.5t139.5 105.5q64 0 136 -32t121.5 -80.5t52.5 -91.5v-1230h-210v1169q0 15 -4.5 26.5t-16.5 20.5t-18.5 12.5t-23.5 10t-18 7.5q-38 0 -110.5 -125.5t-148.5 -303.5l-146.5 -356.5t-115.5 -303.5
l-45 -125v-32h-227l-1 475q0 67 25.5 135t61.5 125.5l71.5 116t58 129.5t18.5 144q-7 111 -76 155l-124 -89l-153 110q-65 -19 -111 -99q44 17 86 17q98 0 168.5 -70t70.5 -168t-70.5 -168.5t-168.5 -70.5q-92 0 -160.5 63.5t-76.5 155.5h-1q-35 255 105 389q32 30 70.5 51
t57.5 26.5t29 6.5l154 -116l155 116q86 -35 135 -117t50 -182q0 -78 -16.5 -147.5t-41 -123l-49 -106t-41.5 -119t-17 -140.5zM313 1096q-48 0 -81.5 -33.5t-33.5 -81.5q0 -49 33.5 -82t81.5 -33q49 0 82 33t33 82q0 48 -33 81.5t-82 33.5z" />
    <glyph glyph-name="uni0E12" unicode="&#xe12;" horiz-adv-x="2223" 
d="M680 730q0 -115 114 -115q116 0 116 115t-116 115q-114 0 -114 -115zM1187 533v478q0 203 -139 259l-255 -178l-260 174q-133 -57 -133 -261v-790q47 48 98.5 94l121 104.5l100.5 85.5q-168 47 -168 231q0 110 66 176t176 66q111 0 177.5 -66t66.5 -176q0 -45 -15.5 -89
t-35.5 -75.5t-59 -71t-65 -61l-76 -61l-71 -56.5l-118 -99.5t-100 -96t-98 -115.5v-3h-210v1022q0 151 90.5 247.5t271.5 168.5q132 -131 240 -181q104 53 239 182q165 -63 265.5 -175t100.5 -262v-473q138 0 263 -61.5t173 -151.5v1096h210v-1414h-212q0 174 -117 291
t-317 117v-273q0 -51 -38 -89t-85 -54.5t-90 -16.5q-93 0 -165.5 76.5t-72.5 188.5q0 126 67 205.5t174 87.5zM1161 95q26 1 26 89v224q-52 0 -83.5 -40t-31.5 -109v-19q0 -51 26.5 -99t62.5 -46z" />
    <glyph glyph-name="uni0E13" unicode="&#xe13;" horiz-adv-x="2160" 
d="M1923 466q60 -32 93.5 -92t33.5 -139q0 -117 -72.5 -189t-190.5 -72q-116 0 -188.5 72t-72.5 189q0 67 37 133q-110 -18 -179.5 -112t-83.5 -230v-26h-210v1015v1q0 68 -35 119.5t-93 79.5t-122.5 41t-135.5 13q-62 0 -121.5 -9t-120.5 -30.5t-102.5 -64t-52.5 -101.5
q112 -46 184 -103v-500q15 3 46 3q109 0 176 -67t67 -176q0 -111 -66.5 -177t-176.5 -66q-111 0 -182.5 66.5t-71.5 176.5l-2 714q-63 31 -181 56q13 109 69.5 196t141 140t185 80.5t208.5 27.5q104 0 207 -26.5t191 -75t143 -128.5t55 -177v-722q66 113 185 172t262 52
q13 13 20 29v853h210v-877q-15 -33 -54 -69zM537 336q-114 0 -114 -115q0 -116 114 -116t114 116q0 115 -114 115zM1787 106q63 0 96 33.5t33 95.5q0 63 -33 96t-96 33q-128 0 -128 -129q0 -62 32.5 -95.5t95.5 -33.5z" />
    <glyph glyph-name="uni0E14" unicode="&#xe14;" horiz-adv-x="1577" 
d="M1038 732q0 -48 -15 -92.5t-36 -78t-58.5 -72.5t-66.5 -63l-78 -64t-75 -63q-31 -28 -102 -87t-120.5 -106.5t-86.5 -97.5v-8h-210v1021q0 102 55 183.5t144 129.5t193 73t211 25q81 0 163 -15t162 -49t141.5 -83t99.5 -122.5t38 -161.5v-1001h-210v1009q0 67 -38 119
t-99 81t-126.5 43t-130.5 14q-59 0 -125 -16.5t-127 -47t-101 -83t-40 -117.5v-784q48 51 107.5 104.5l99 86.5l113.5 92q-168 47 -168 231q0 110 66.5 176.5t175.5 66.5q111 0 177.5 -66.5t66.5 -176.5zM680 732q0 -114 114 -114q116 0 116 114q0 56 -29.5 86t-86.5 30
q-114 0 -114 -116z" />
    <glyph glyph-name="uni0E15" unicode="&#xe15;" horiz-adv-x="1577" 
d="M400 1h-210v1021q0 151 91 248t271 169q132 -131 240 -181q104 53 239 182q165 -63 265.5 -175.5t100.5 -262.5v-1001h-210v1009q0 203 -139 259l-255 -178l-260 174q-133 -57 -133 -261v-790q47 48 98.5 94l121 104.5l100.5 85.5q-168 47 -168 231q0 109 66 175.5
t176 66.5q111 0 177.5 -66t66.5 -176q0 -48 -15.5 -93t-36 -78t-58.5 -72.5t-67 -64l-77.5 -64.5l-73.5 -62q-31 -28 -102.5 -87t-121 -106.5t-86.5 -97.5v-3zM680 729q0 -115 114 -115q116 0 116 115t-116 115q-114 0 -114 -115z" />
    <glyph glyph-name="uni0E16" unicode="&#xe16;" horiz-adv-x="1480" 
d="M538 336q-116 0 -116 -115q0 -116 116 -116q113 0 113 116q0 115 -113 115zM282 221l-1 714q-63 31 -181 56q13 109 69.5 196t141 140t185 80.5t208.5 27.5q104 0 207 -26.5t191 -75t143 -128.5t55 -177v-1028h-210v1015v1q0 68 -35 119.5t-93 79.5t-122.5 41t-135.5 13
q-62 0 -121.5 -9t-120 -30.5t-102 -64t-52.5 -101.5q110 -45 183 -103v-500q15 3 47 3q109 0 175.5 -66.5t66.5 -176.5q0 -111 -66 -177t-176 -66q-111 0 -183.5 67t-72.5 176z" />
    <glyph glyph-name="uni0E17" unicode="&#xe17;" horiz-adv-x="1673" 
d="M619 32v-32h-210v950q-14 -2 -46 -2q-112 0 -177.5 65.5t-65.5 175.5q0 111 66 177.5t177 67.5h2q61 0 113 -23t86.5 -63t47.5 -91q3 -15 4.5 -31t1.5 -36v-573l-6 -117l28 122q39 157 81.5 286.5t78 211t72.5 144t62 93t50 50t33 23t13 4.5h2q152 0 276.5 -54
t184.5 -150v-1230h-210v1149q-14 28 -38 47.5t-56.5 31t-63.5 17.5t-72 10q-100 -53 -335 -866q-58 -201 -99 -357zM363 1075q115 0 115 115q0 116 -115 116q-114 0 -114 -116q0 -115 114 -115z" />
    <glyph glyph-name="uni0E18" unicode="&#xe18;" horiz-adv-x="1329" 
d="M942 379v383q1 45 -54 78t-144 48.5t-186 24.5t-197.5 9t-159 -1.5t-89.5 -3.5q1 77 16.5 148t51.5 138.5t90 117t137 79.5t187 30q49 0 159.5 -22.5t151.5 -28.5q40 -7 76.5 0t61 16t45 23t28.5 21t10 10l-1 -1l84 -143q-86 -114 -345 -86q-40 4 -138.5 24.5
t-131.5 20.5q-76 0 -130 -18t-82 -49t-40 -66t-11 -76q33 -1 99.5 -2t115.5 -2.5t118.5 -5t122 -11.5t112.5 -20t102 -31.5t78 -46t54.5 -64.5t18.5 -85v-422q0 -108 -54 -192.5t-142 -128.5t-191 -44h-181q-101 0 -186 41.5t-140.5 126t-59.5 198.5v379h210v-366v-1
q0 -96 56.5 -154t143.5 -58h134q84 0 142 59t58 154z" />
    <glyph glyph-name="uni0E19" unicode="&#xe19;" horiz-adv-x="1588" 
d="M363 1075q115 0 115 115q0 116 -115 116q-114 0 -114 -116q0 -115 114 -115zM619 28v-28h-210v950q-10 -2 -46 -2q-110 0 -176.5 66.5t-66.5 175.5q0 111 66.5 177.5t176.5 66.5q111 0 183 -67t72 -177v-882q106 107 260.5 168.5t297.5 54.5q13 13 20 29v852h210v-876
q-13 -29 -56 -68q60 -32 94 -92.5t34 -139.5q0 -117 -72 -189t-190 -72q-117 0 -189.5 72t-72.5 189q0 69 36 133q-78 -13 -158.5 -59t-142 -122.5t-70.5 -159.5zM1216 108q63 0 95.5 33t32.5 95q0 129 -128 129q-63 0 -96 -33t-33 -96q0 -62 33 -95t96 -33z" />
    <glyph glyph-name="uni0E1A" unicode="&#xe1a;" horiz-adv-x="1657" 
d="M409 366v584q-10 -2 -45 -2q-111 0 -177.5 66t-66.5 176q0 111 66.5 177.5t177.5 66.5t183 -67t72 -177v-811v-1q1 -96 57 -154t143 -58h248q84 0 140.5 59t59.5 154v1033h210v-1047q-1 -108 -55.5 -192.5t-142 -128.5t-190.5 -44h-293q-101 0 -186.5 41.5t-141 126
t-59.5 198.5zM249 1190q0 -115 115 -115t115 115q0 116 -115 116t-115 -116z" />
    <glyph glyph-name="uni0E1B" unicode="&#xe1b;" horiz-adv-x="1657" 
d="M409 366v584q-10 -2 -45 -2q-111 0 -177.5 66t-66.5 176q0 111 66.5 177.5t177.5 66.5t183 -67t72 -177v-811v-1q1 -96 57 -154t143 -58h248q84 0 140.5 59t59.5 154v1441h210v-1455q-1 -108 -55.5 -192.5t-142 -128.5t-190.5 -44h-293q-101 0 -186.5 41.5t-141 126
t-59.5 198.5zM249 1190q0 -115 115 -115t115 115q0 116 -115 116t-115 -116z" />
    <glyph glyph-name="uni0E1C" unicode="&#xe1c;" horiz-adv-x="1576" 
d="M330 1190q0 -116 114 -116t114 116t-114 116t-114 -116zM191 99l-1 1091q0 110 71.5 177t182.5 67q110 0 176.5 -66.5t66.5 -177.5t-66.5 -177.5t-176.5 -66.5q-34 0 -44 4v-695l341 651h92l353 -651v1159h210v-1315q-23 -42 -77 -77.5t-106 -41.5h-28l-395 765
l-388 -765h-28q-52 6 -106 41.5t-77 77.5z" />
    <glyph glyph-name="uni0E1D" unicode="&#xe1d;" horiz-adv-x="1576" 
d="M330 1190q0 -116 114 -116t114 116t-114 116t-114 -116zM191 99l-1 1091q0 110 71.5 177t182.5 67q110 0 176.5 -66.5t66.5 -177.5t-66.5 -177.5t-176.5 -66.5q-34 0 -44 4v-695l341 651h92l353 -651v1699h210v-1855q-23 -42 -77 -77.5t-106 -41.5h-28l-395 765
l-388 -765h-28q-52 6 -106 41.5t-77 77.5z" />
    <glyph glyph-name="uni0E1E" unicode="&#xe1e;" horiz-adv-x="1732" 
d="M363 1074q115 0 115 115q0 116 -115 116q-114 0 -114 -116q0 -115 114 -115zM620 -20h-28q-52 6 -106 41.5t-77 77.5v851q-10 -4 -46 -4q-109 0 -176 67t-67 176q0 111 66.5 177t176.5 66q111 0 183 -67t72 -176v-768l14 24l297 931h95l303 -928l15 -27v993h210v-1315
q-23 -42 -77 -77.5t-106 -41.5h-28l-357 1148h-14z" />
    <glyph glyph-name="uni0E1F" unicode="&#xe1f;" horiz-adv-x="1732" 
d="M363 1074q115 0 115 115q0 116 -115 116q-114 0 -114 -116q0 -115 114 -115zM620 -19l-28 -1q-52 6 -106 41.5t-77 77.5v851q-10 -4 -46 -4q-109 0 -176 67t-67 176q0 111 66.5 177t176.5 66q111 0 183 -67t72 -176v-768l14 24l297 931h95l303 -928l15 -27v1534h210
v-1856q-23 -42 -77 -77.5t-106 -41.5l-28 1l-357 1147h-14z" />
    <glyph glyph-name="uni0E20" unicode="&#xe20;" horiz-adv-x="1550" 
d="M343 336q-114 0 -114 -115q0 -116 114 -116t114 116q0 115 -114 115zM389 461v457q-95 46 -219 73q13 109 69.5 196t141 140t185 80.5t208.5 27.5q104 0 207 -26.5t191 -75t143 -128.5t55 -177v-1028h-210v1015v1q0 68 -35 119.5t-93 79.5t-122.5 41t-135.5 13
q-62 0 -121.5 -9t-120.5 -30.5t-102.5 -64t-52.5 -101.5q49 -20 115.5 -59.5t104.5 -69.5v-714q0 -110 -71.5 -176.5t-182.5 -66.5q-110 0 -176.5 66t-66.5 177q0 109 67 176t176 67q31 0 46 -3z" />
    <glyph glyph-name="uni0E21" unicode="&#xe21;" horiz-adv-x="1579" 
d="M1188 1411h210v-1412h-210v11q2 83 -30 156.5t-87.5 127.5t-128.5 95.5t-152 65t-160 31.5v-344q-2 -47 -37 -85.5t-83 -58.5t-97 -20q-122 0 -204 84t-89 212q-3 62 14 121.5t52.5 111.5t96 90t137.5 51v302q-10 -2 -32 -2q-73 0 -128.5 30t-85.5 85t-30 127
q0 111 66.5 177.5t177.5 66.5q110 0 176 -66.5t66 -177.5v-538q158 -15 308 -80t250 -176v1015zM273 1190q0 -56 29.5 -85.5t86 -29.5t85.5 29.5t29 85.5q0 116 -115 116t-115 -116zM262.5 281q3.5 -62 48.5 -110t109 -52v359q-75 -22 -118 -78.5t-39.5 -118.5z" />
    <glyph glyph-name="uni0E22" unicode="&#xe22;" horiz-adv-x="1454" 
d="M320 1190q0 -116 116 -116q113 0 113 116t-113 116q-116 0 -116 -116zM207 366v126q18 130 216 210q-210 62 -243 197v291q0 109 72.5 176.5t183.5 67.5q110 0 176 -66.5t66 -177.5t-66 -177.5t-176 -66.5q-36 0 -46 4v-40q91 -125 309 -133v-135q-159 0 -283 -143h1
v-120v-1q1 -96 57 -154t143 -58h247q86 0 143 57.5t57 155.5v1033h210v-1047q0 -108 -54 -192.5t-142 -128.5t-191 -44h-294q-75 0 -144 24.5t-123.5 69.5t-86.5 115.5t-32 156.5z" />
    <glyph glyph-name="uni0E23" unicode="&#xe23;" horiz-adv-x="1228" 
d="M1015 789v-570q0 -110 -72 -177t-183 -67q-110 0 -176 66.5t-66 177.5q0 109 66 175.5t176 66.5q36 0 46 -2v304q0 23 -13 43t-40 34.5t-57 26.5t-76.5 20t-85 14t-96 10t-96 6t-99 3t-90 1h-83.5q0 73 18.5 145t57.5 137.5t94 115.5t134 80t171 30q50 0 159 -28.5
t157 -29.5q121 -1 173 72l74 -147q-26 -41 -92 -66t-131 -24q-45 0 -161 28t-179 28q-112 0 -183 -60.5t-71 -147.5q53 0 84 -0.5t90.5 -2t97.5 -5t94.5 -9.5t94 -16.5l82.5 -24t74.5 -33.5t55.5 -45t38.5 -57.5t12.5 -71.5zM875 219q0 115 -115 115q-114 0 -114 -115
q0 -117 114 -117q115 0 115 117z" />
    <glyph glyph-name="uni0E24" unicode="&#xe24;" horiz-adv-x="1480" 
d="M537 336q-114 0 -114 -115q0 -116 114 -116t114 116q0 115 -114 115zM283 221l-2 714q-63 31 -181 56q13 109 69.5 196t141 140t185 80.5t208.5 27.5q104 0 207 -26.5t191 -75t143 -128.5t55 -177v-1592h-210v1579v1q0 68 -35 119.5t-93 79.5t-122.5 41t-135.5 13
q-62 0 -121.5 -9t-120.5 -30.5t-102.5 -64t-52.5 -101.5q112 -46 184 -103v-500q15 3 46 3q109 0 176 -67t67 -176q0 -111 -66.5 -177t-176.5 -66q-111 0 -182.5 66.5t-71.5 176.5z" />
    <glyph glyph-name="uni0E25" unicode="&#xe25;" horiz-adv-x="1495" 
d="M476 335q-115 0 -115 -115q0 -116 115 -116q114 0 114 116q0 115 -114 115zM221 220v450q8 90 71.5 156t149.5 96t178 30q130 0 248 -56.5t197 -159.5q28 -64 40 -98v353q-5 72 -40.5 127t-91 87t-120 47.5t-135.5 15.5q-69 0 -132.5 -14t-122 -44.5t-99.5 -86.5
t-54 -132l-150 93q24 90 87 160.5t145 110t165.5 59.5t160.5 20q90 0 174 -15t161.5 -48.5t135 -82.5t92 -122.5t34.5 -163.5v-1002h-210v71q-10 364 -169 559q-39 48 -85 81t-89.5 48.5t-77 21t-64.5 5.5q-44 0 -82 -9t-70.5 -36.5t-37.5 -70.5v-210q10 2 46 2
q110 0 176 -66t66 -176q0 -111 -66 -177.5t-176 -66.5q-111 0 -183 67t-72 177z" />
    <glyph glyph-name="uni0E26" unicode="&#xe26;" horiz-adv-x="1550" 
d="M343 336q-114 0 -114 -115q0 -116 114 -116t114 116q0 115 -114 115zM389 461v457q-95 46 -219 73q13 109 69.5 196t141 140t185 80.5t208.5 27.5q104 0 207 -26.5t191 -75t143 -128.5t55 -177v-1588h-210v1575v1q0 68 -35 119.5t-93 79.5t-122.5 41t-135.5 13
q-62 0 -121.5 -9t-120.5 -30.5t-102.5 -64t-52.5 -101.5q49 -20 115.5 -59.5t104.5 -69.5v-714q0 -110 -71.5 -176.5t-182.5 -66.5q-110 0 -176.5 66t-66.5 177q0 109 67 176t176 67q31 0 46 -3z" />
    <glyph glyph-name="uni0E27" unicode="&#xe27;" horiz-adv-x="1254" 
d="M1074 1022v-803q0 -110 -72 -177t-183 -67q-110 0 -176.5 66.5t-66.5 177.5q0 109 66.5 175.5t176.5 66.5q36 0 46 -2v531q0 135 -86 206.5t-231 71.5q-90 0 -166 -28.5t-130 -93t-62 -155.5l-150 93q8 60 47 121t102 113t157 84t202 32q100 0 193 -26.5t168 -76
t120 -130t45 -179.5zM934 219q0 115 -115 115q-114 0 -114 -115q0 -117 114 -117q115 0 115 117z" />
    <glyph glyph-name="uni0E28" unicode="&#xe28;" horiz-adv-x="1580" 
d="M1054 1095h-103q73 53 121 100q-116 70 -279 70q-59 0 -125 -16.5t-127 -47t-101 -83t-40 -117.5v-474l-8 -91l30 90l142 282l29 57q70 106 201 106q110 0 177 -66.5t67 -175.5t-67 -176.5t-177 -67.5q-124 0 -198 104q-39 -70 -105.5 -222t-90.5 -262v-106h-210v1021
q0 102 55 183.5t144 129.5t193 73t211 25q215 0 384 -93q54 103 54 218h200q-12 -185 -133 -310q99 -106 99 -246v-1001h-210v1009q0 67 -43 123q-23 -12 -45.5 -21t-33.5 -12zM794 844q-114 0 -114 -115t114 -115q116 0 116 115t-116 115z" />
    <glyph glyph-name="uni0E29" unicode="&#xe29;" horiz-adv-x="1660" 
d="M1726 1002q-22 -120 -87 -216.5t-162 -157.5v-263q-1 -108 -55.5 -192.5t-142 -128.5t-190.5 -44h-293q-101 0 -186.5 41.5t-141 126t-59.5 198.5v584q-10 -2 -45 -2q-111 0 -177.5 66t-66.5 176q0 111 66.5 177.5t177.5 66.5t183 -67t72 -177v-811v-1q1 -96 57 -154
t143 -58h248q84 0 140.5 59t59.5 154v172q-39 -6 -80 -6q-174 0 -289 85q-114 84 -114 206q0 88 54 143.5t142 55.5t141 -54t53 -141q0 -55 -17.5 -90.5t-56.5 -70.5q84 -24 167 -10v743h210v-623q78 90 79 213h170zM980 742q97 0 97 93q0 95 -97 95q-50 0 -72 -23t-22 -72
t22 -71t72 -22zM364 1075q115 0 115 115q0 116 -115 116t-115 -116q0 -115 115 -115z" />
    <glyph glyph-name="uni0E2A" unicode="&#xe2a;" horiz-adv-x="1495" 
d="M1254 1211q59 -92 59 -210v-1002h-209v71q-12 368 -169 559q-128 156 -317 156q-44 0 -82 -9t-70.5 -36.5t-37.5 -70.5v-210q10 2 47 2q109 0 175 -66.5t66 -175.5q0 -111 -66 -177.5t-175 -66.5q-111 0 -183 67t-72 177l-1 450q7 90 71 156t150 96t178 30
q130 0 248 -56.5t197 -159.5l17 -41.5l23 -56.5v353q0 43 -24 95q-20 -10 -44 -20t-39 -15l-14 -5l-103 13q94 64 143 107q-106 102 -307 102q-69 0 -132 -14t-121.5 -44.5t-99.5 -86.5t-54 -132l-149 93q24 90 87 160.5t145 110t165 59.5t160 20q266 0 431 -116l6 8
q62 117 58 229h200q0 -199 -157 -343zM475 334q-115 0 -115 -115q0 -116 115 -116q113 0 113 116q0 115 -113 115z" />
    <glyph glyph-name="uni0E2B" unicode="&#xe2b;" horiz-adv-x="1675" 
d="M1399 1014q68 -37 94 -84v-930h-210v891q-43 50 -86 64q-47 -5 -123.5 -102t-152.5 -232l-145.5 -269t-113.5 -227l-43 -93v-32h-210v950q-10 -2 -46 -2q-110 0 -176.5 66.5t-66.5 175.5q0 111 66.5 177.5t176.5 66.5q111 0 183 -67t72 -177v-823l-6 -70l21 71
q5 14 14.5 37t40.5 91t63 129.5t79.5 136.5t93 129t100.5 91t105 37q-44 32 -68.5 81t-24.5 105q0 104 63 167t167 63q107 0 169 -59.5t62 -170.5q0 -125 -98 -191zM363 1075q115 0 115 115q0 116 -115 116q-114 0 -114 -116q0 -115 114 -115zM1266 1096q108 0 108 109
t-108 109q-109 0 -109 -109t109 -109z" />
    <glyph glyph-name="uni0E2C" unicode="&#xe2c;" horiz-adv-x="1739" 
d="M363 1074q115 0 115 115q0 116 -115 116q-114 0 -114 -116q0 -115 114 -115zM1552 1218v-1119q-23 -42 -77 -77.5t-106 -41.5l-28 2l-357 866h-14l-350 -866l-28 -2q-52 6 -106 41.5t-77 77.5v851q-10 -4 -46 -4q-109 0 -176 67t-67 176q0 111 66.5 177t176.5 66
q111 0 183 -67t72 -176v-828l14 14l297 691h95l303 -688l15 -17v737q-59 -18 -118 -18q-124 0 -209.5 62t-85.5 153q0 90 85.5 152.5t209.5 62.5q85 0 155 -31.5t106 -84.5q56 78 64 195h175q-28 -237 -172 -371zM1062 1295q0 -29 46.5 -56t115.5 -27q65 0 110.5 25.5
t49.5 53.5l-3 5l1 1q2 1 2 2q-3 28 -48.5 52.5t-111.5 24.5q-69 0 -115.5 -26.5t-46.5 -54.5z" />
    <glyph glyph-name="uni0E2D" unicode="&#xe2d;" horiz-adv-x="1495" 
d="M455 578q113 0 113 114q0 117 -113 117q-115 0 -115 -117q0 -114 115 -114zM1315 1002v-637q0 -81 -32 -150.5t-85 -116t-123.5 -72.5t-147.5 -26h-342q-75 0 -143 24.5t-121.5 69.5t-86.5 115.5t-36 156.5l2 326q1 110 72.5 177t182.5 67q110 0 176 -66.5t66 -177.5
q0 -110 -66 -176t-176 -66q-37 0 -47 2v-73v-1q0 -96 56.5 -154t143.5 -58h297q85 0 142.5 59t57.5 154v612q0 44 -12 81.5t-33 65.5t-50.5 50t-63 37t-72.5 25t-77.5 14t-78.5 4q-57 0 -110.5 -8t-107.5 -28.5t-95.5 -51t-72.5 -79.5t-42 -110l-150 93q21 68 63.5 125.5
t98 98.5t124 69.5t142 42.5t150.5 14q49 0 97 -4.5t95.5 -14.5t91.5 -24.5t84.5 -35t75 -46t63 -58t48.5 -70t31 -83t11 -96.5z" />
    <glyph glyph-name="uni0E2E" unicode="&#xe2e;" horiz-adv-x="1484" 
d="M1257 1201q39 -73 42 -152q3 -45 3 -47v-637q-1 -108 -55.5 -192.5t-142 -128.5t-190.5 -44h-342q-101 0 -186 41.5t-140.5 126t-59.5 198.5l1 282q1 110 72.5 176.5t182.5 66.5q110 0 176 -66t66 -177q0 -110 -66.5 -176.5t-175.5 -66.5q-31 0 -46 3v-30q1 -96 57 -154
t143 -58h296q84 0 140.5 59t59.5 154v612l-4 28v2q-160 -72 -394 -72q-196 0 -340 50q-184 70 -184 191q0 68 53 116t131 75q143 53 340 53q290 0 445 -105q22 33 39 93.5t18 106.5h187q-3 -86 -40.5 -178.5t-85.5 -149.5zM694 1101q96 0 209 23.5t134 59.5q-34 48 -138 66
t-205 18q-265 0 -364 -78q24 -42 142.5 -65.5t221.5 -23.5zM442 532q114 0 114 116t-114 116q-115 0 -115 -116t115 -116z" />
    <glyph glyph-name="uni0E2F" unicode="&#xe2f;" horiz-adv-x="1442" 
d="M412 975q39 -17 81.5 -26t86.5 -9q74 0 143 25q65 24 121 68t95 103q79 117 79 260q64 0 116.5 -12t76 -25.5t23.5 -22.5v-1336h-213v1005q-70 -104 -185 -160q-107 -52 -232 -52h-10q-137 3 -238 66q-17 11 -32.5 23t-29.5 26t-26 29q-40 49 -60 113q-7 21 -12 43
t-7.5 44.5t-2.5 45.5v6q0 15 2 29t5 27q7 26 21 50q15 24 35 44t43.5 34t50 21t55.5 7q14 0 28.5 -1.5t27.5 -5.5q27 -7 50.5 -21t44.5 -34q32 -31 47.5 -68t15.5 -82q0 -29 -6 -55q-4 -13 -8.5 -25.5t-11.5 -23.5q-13 -24 -32 -44t-42 -34q-22 -14 -47 -22q-26 -8 -53 -10z
M398 1085q110 0 110 106q0 105 -110 105q-49 0 -76.5 -27.5t-27.5 -77.5q0 -106 104 -106z" />
    <glyph glyph-name="uni0E30" unicode="&#xe30;" horiz-adv-x="1067" 
d="M790 452h178q-29 -197 -165.5 -317t-306.5 -120q-53 0 -103.5 5t-110.5 22t-104 43.5t-73.5 74t-29.5 110.5q0 94 55.5 149.5t149.5 55.5t149.5 -55.5t55.5 -149.5q0 -59 -30 -108q57 -10 113 2.5t104.5 45.5t80.5 96t37 146zM280 360q-46 0 -68 -22t-22 -68t22 -68
t68 -22t68 22t22 68t-22 68t-68 22zM790 1378h178q-19 -132 -91 -233t-171.5 -153t-209.5 -52q-53 0 -103.5 5t-110.5 22t-104 43.5t-73.5 74t-29.5 110.5q0 94 55.5 149.5t149.5 55.5t149.5 -55t55.5 -150q0 -58 -30 -107q57 -10 113 2.5t104.5 45.5t80.5 96t37 146z
M280 1285q-46 0 -68 -21.5t-22 -68.5t22 -68.5t68 -21.5t68 21.5t22 68.5t-22 68.5t-68 21.5z" />
    <glyph glyph-name="uni0E31" unicode="&#xe31;" 
d="M-40 2098h178q-24 -132 -114.5 -233t-217 -153t-265.5 -52q-53 0 -103.5 5t-110.5 22t-104 43.5t-73.5 74t-29.5 110.5q0 94 55.5 149.5t149.5 55.5q95 0 150 -55t55 -150q0 -58 -30 -107q158 -19 289.5 59.5t170.5 230.5zM-675 2005q-47 0 -68.5 -21.5t-21.5 -68.5
t21.5 -68.5t68.5 -21.5t68.5 21.5t21.5 68.5t-21.5 68.5t-68.5 21.5z" />
    <glyph glyph-name="uni0E32" unicode="&#xe32;" horiz-adv-x="1217" 
d="M1037 0h-208v990q0 137 -75.5 207.5t-217.5 70.5q-87 0 -162.5 -32t-125.5 -96t-57 -149l-151 93q11 62 51 123.5t102 112.5t152 82.5t191 31.5q135 0 246.5 -44.5t183 -140t71.5 -227.5v-1022z" />
    <glyph glyph-name="uni0E33" unicode="&#xe33;" horiz-adv-x="1217" 
d="M-396 2092q108 0 172.5 -65t64.5 -173t-64.5 -173t-172.5 -65t-173.5 65t-65.5 173t65.5 173t173.5 65zM-397 1739q60 0 88.5 28t28.5 88q0 61 -28.5 90t-88.5 29q-61 0 -90.5 -29t-29.5 -90q0 -60 29 -88t91 -28zM1037 0h-208v990q0 137 -75.5 207.5t-217.5 70.5
q-87 0 -162.5 -32t-125.5 -96t-57 -149l-151 93q11 62 51 123.5t102 112.5t152 82.5t191 31.5q135 0 246.5 -44.5t183 -140t71.5 -227.5v-1022z" />
    <glyph glyph-name="uni0E34" unicode="&#xe34;" 
d="M-155 1638q-353 54 -628.5 62t-590.5 -29q39 213 169.5 331.5t338.5 125.5q129 4 235.5 -25.5t192 -94t153.5 -154.5t130 -216zM-389 1791q-94 98 -213.5 150t-246.5 48q-118 -4 -205 -56.5t-132 -127.5q392 31 797 -14z" />
    <glyph glyph-name="uni0E35" unicode="&#xe35;" 
d="M-155 1638q-353 54 -628.5 62t-590.5 -29q39 213 169.5 331.5t338.5 125.5q290 10 476 -181l-11 55v164h191v-426q25 -43 55 -102zM-389 1791q-94 98 -213.5 150t-246.5 48q-118 -4 -205 -56.5t-132 -127.5q392 31 797 -14z" />
    <glyph glyph-name="uni0E36" unicode="&#xe36;" 
d="M-284 1878q80 -100 148 -240q-353 54 -628.5 62t-590.5 -29q39 213 169 331.5t338 125.5q149 6 267 -36q5 91 62.5 145.5t150.5 54.5q97 0 155.5 -58.5t58.5 -155.5q0 -74 -34.5 -126t-95.5 -74zM-368 2185q-56 0 -81.5 -26t-25.5 -80q0 -55 25.5 -80t81.5 -25
q55 0 81 25t26 80q0 106 -107 106zM-1168 1805q393 31 798 -14q-94 98 -213.5 150t-246.5 48q-118 -4 -205.5 -56.5t-132.5 -127.5z" />
    <glyph glyph-name="uni0E37" unicode="&#xe37;" 
d="M-211 1735q30 -44 55 -99q-355 54 -629.5 62.5t-590.5 -28.5q40 210 170.5 328t336.5 118q94 0 178 -37v120h167v-188q82 -44 146 -95v283h167v-464zM-1189 1804q393 31 799 -14q-95 93 -214.5 142.5t-246.5 45.5q-117 -4 -205 -54t-133 -120z" />
    <glyph glyph-name="uni0E38" unicode="&#xe38;" 
d="M-373 -138q86 0 138.5 -41t52.5 -119v-363h-191v181q-86 -3 -128.5 45t-42.5 125q0 75 47 123.5t124 48.5zM-284 -310q0 89 -89 89q-86 0 -86 -89q0 -46 20.5 -67t66.5 -21t67 21t21 67z" />
    <glyph glyph-name="uni0E39" unicode="&#xe39;" 
d="M-691 -599v135q-85 -4 -128.5 40t-43.5 122q0 77 44.5 120.5t120.5 43.5q80 0 126.5 -38.5t53.5 -112.5v-247q72 -56 157 0v380h178v-443q-261 -156 -508 0zM-698 -389q44 0 63.5 21t19.5 66q0 44 -19.5 63.5t-63.5 19.5t-64 -19.5t-20 -63.5q0 -87 84 -87z" />
    <glyph glyph-name="uni0E3A" unicode="&#xe3a;" 
d="M-426 -271q0 45 32.5 77t77.5 32t76.5 -32t31.5 -77t-31.5 -77.5t-76.5 -32.5t-77.5 32.5t-32.5 77.5z" />
    <glyph glyph-name="uni0E3F" unicode="&#xe3f;" horiz-adv-x="1484" 
d="M430 852v-660h207v660h-207zM205 0v1820h432v245h187v-251q471 -48 471 -479q0 -135 -75.5 -230t-194.5 -147q145 -40 232 -152t87 -281q0 -120 -37 -215.5t-106 -159.5t-164 -100.5t-213 -46.5v-193h-187v190h-432zM637 1044v582h-207v-582h207zM824 198
q129 21 204 104.5t75 219.5q0 146 -71.5 228t-207.5 98v-650zM824 1056q107 25 168.5 96t61.5 184q0 83 -27.5 141.5t-78 91.5t-124.5 47v-560z" />
    <glyph glyph-name="uni0E40" unicode="&#xe40;" horiz-adv-x="808" 
d="M535 461q110 0 176.5 -66.5t66.5 -175.5q0 -111 -66.5 -177.5t-176.5 -66.5q-111 0 -183 67t-72 177v1195h209v-955q10 2 46 2zM535 102q114 0 114 117q0 115 -114 115q-115 0 -115 -115q0 -117 115 -117z" />
    <glyph glyph-name="uni0E41" unicode="&#xe41;" horiz-adv-x="1435" 
d="M535 461q110 0 176.5 -66.5t66.5 -175.5q0 -111 -66.5 -177.5t-176.5 -66.5q-111 0 -183 67t-72 177v1195h209v-955q10 2 46 2zM535 102q114 0 114 117q0 115 -114 115q-115 0 -115 -115q0 -117 115 -117zM1162 461q110 0 176.5 -66.5t66.5 -175.5q0 -111 -66.5 -177.5
t-176.5 -66.5q-111 0 -182.5 67t-71.5 177v1195h208v-955q10 2 46 2zM1162 102q114 0 114 117q0 115 -114 115t-114 -115q0 -117 114 -117z" />
    <glyph glyph-name="uni0E42" unicode="&#xe42;" horiz-adv-x="1088" 
d="M739 1514v-1055q10 2 46 2q110 0 176.5 -66.5t66.5 -175.5q0 -111 -66.5 -177.5t-176.5 -66.5q-111 0 -183 67t-72 177v1317q-6 45 -84 84t-182 62t-218 34q4 66 34.5 133t80.5 121.5t124 89t156 34.5q29 0 62.5 -4t78.5 -13.5l74 -16t89 -21.5l84 -21q27 -6 53 -6.5
t46 4t39 12.5t31 15.5t23 16.5t14.5 13t5.5 6l87 -135q-35 -42 -93.5 -65.5t-120.5 -24t-126 11.5q-6 2 -70.5 19l-101 26t-90 18.5t-85.5 9.5q-140 0 -193 -126q491 -75 491 -299zM785 102q114 0 114 117q0 115 -114 115q-115 0 -115 -115q0 -117 115 -117z" />
    <glyph glyph-name="uni0E43" unicode="&#xe43;" horiz-adv-x="1152" 
d="M880 460q110 0 176 -66t66 -176q0 -111 -66 -177.5t-176 -66.5t-182.5 67.5t-72.5 176.5l1 1582q0 211 -220 211q-168 2 -222 -169q48 25 92 23q111 0 174.5 -63t63.5 -172q0 -105 -65.5 -171.5t-172.5 -66.5q-274 0 -274 340q0 195 104.5 302.5t297.5 107.5
q197 1 310.5 -87t120.5 -255v-1342q10 2 45 2zM276 1749q-65 0 -90.5 -28.5t-25.5 -90.5q0 -116 116 -116q119 0 119 116q0 61 -27 90t-92 29zM880 101q115 0 115 117q0 114 -115 114q-114 0 -114 -114q0 -117 114 -117z" />
    <glyph glyph-name="uni0E44" unicode="&#xe44;" horiz-adv-x="1066" 
d="M794 461q110 0 176 -66.5t66 -175.5q0 -111 -66 -177.5t-176 -66.5q-111 0 -183 67t-72 177v1247q0 26 61.5 243t47.5 245h-93l-160 -434h-161l-15.5 50.5t-38.5 116.5t-56 155t-61 140t-61 97l159 98q31 -39 73 -164t68 -231l27 -105l179 468h141q106 -11 150 -85
t25 -180l-29 -129.5t-33.5 -154.5t-12.5 -85l-1 -1052q10 2 46 2zM794 102q115 0 115 117q0 115 -115 115q-114 0 -114 -115q0 -117 114 -117z" />
    <glyph glyph-name="uni0E45" unicode="&#xe45;" horiz-adv-x="1216" 
d="M1036 -561h-208v1551q0 137 -75.5 207.5t-217.5 70.5q-135 0 -233 -73t-112 -204l-150 91q12 66 52 128t102 112.5t151 81t190 30.5q135 0 246.5 -44.5t183 -140t71.5 -227.5v-1583z" />
    <glyph glyph-name="uni0E46" unicode="&#xe46;" horiz-adv-x="1845" 
d="M699 624q-69 0 -120.5 28.5t-79.5 75t-40.5 108t-9 127t20.5 131.5q31 125 104 210t214 142q93 -103 197 -177q110 64 210 173q94 -26 164 -79t109 -123t58 -144t19 -154v-1503l-210 2v1501q0 54 -3 92t-12.5 87.5t-32.5 86.5t-58 60q-33 -29 -64.5 -52t-62 -39.5
t-48 -25t-45 -19.5t-30.5 -12q-4 2 -27 12.5t-38 19l-41 24t-54 37t-58 48.5q-96 -58 -133 -172q30 11 71 11q101 0 170 -66t69 -172t-69 -172t-170 -66zM699 966q-105 0 -105 -104t105 -104t105 104t-105 104z" />
    <glyph glyph-name="uni0E47" unicode="&#xe47;" 
d="M-626 1769q-4 14 -4 32q0 71 45.5 118t119.5 47q75 0 120 -48t45 -117q0 -76 -54 -129.5t-128 -53.5q-37 -2 -91.5 21.5t-99.5 52.5t-91.5 52.5t-71.5 21.5q-98 0 -105 -140h-119q-75 38 -126.5 118.5t-51.5 164.5q-2 73 48 139.5t129 105t159 36.5q49 0 157.5 -7.5
t145.5 -7.5q191 -2 191 117h168q-8 -57 -27 -99.5t-48 -69t-57.5 -41.5t-66.5 -26q-52 -13 -212 -11q-196 9 -251 9q-66 0 -127 -42.5t-61 -102.5q0 -98 88 -170q25 75 61 109t105 34q20 -3 41.5 -10.5t35.5 -13.5t37.5 -21t31.5 -20.5t34 -25zM-465 1718q36 0 60 23.5
t24 57.5q0 36 -24 61t-60 25q-35 0 -59 -24.5t-24 -61.5q0 -33 24.5 -57t58.5 -24z" />
    <glyph glyph-name="uni0E48" unicode="&#xe48;" 
d="M-230 2279h-199v441h199v-441z" />
    <glyph glyph-name="uni0E49" unicode="&#xe49;" 
d="M-135 2835h189q-28 -146 -110 -258t-204 -180.5t-271 -103t-321 -34.5v109q52 2 115.5 42t81.5 81q-22 -6 -47 -6q-86 0 -146.5 60.5t-60.5 145.5q0 84 61 144.5t146 60.5q83 0 143.5 -57.5t60.5 -139.5q0 -69 -25 -143t-69 -131q64 12 120 30t116.5 51t105 76.5
t76.5 108.5t39 144zM-792 2691q0 -47 22 -68.5t68 -21.5q90 0 90 90t-90 90t-90 -90z" />
    <glyph glyph-name="uni0E4A" unicode="&#xe4a;" 
d="M-41 2724h146q-13 -217 -154.5 -334.5t-358.5 -120.5q49 138 49 226q0 56 -22.5 95.5t-42.5 39.5l-137 -84l-144 84q-51 -14 -59 -76q65 -3 109.5 -46.5t44.5 -105.5q0 -63 -46.5 -107t-107.5 -44q-76 0 -126 56.5t-50 131.5q0 136 61 218t179 103l139 -105l142 105
q96 -16 150.5 -87.5t54.5 -177.5q0 -28 -21 -79q101 38 149 112t45 196zM-764 2320q35 0 59.5 24t24.5 58t-24.5 59t-59.5 25q-33 0 -57 -25t-24 -59t24 -58t57 -24z" />
    <glyph glyph-name="uni0E4B" unicode="&#xe4b;" 
d="M-98 2430h-148v-154h-168v154h-151v151h151v147h168v-147h148v-151z" />
    <glyph glyph-name="uni0E4C" unicode="&#xe4c;" 
d="M-615 2195q-85 0 -145.5 60.5t-60.5 144.5q0 59 33 108t86 78q38 21 95 29.5t110 7t111 4t103.5 18.5t81 51.5t49.5 102.5l151 -33q-9 -65 -38 -115t-65.5 -78.5t-89 -48t-95.5 -27.5t-97 -13l-42 -2q18 -41 18 -82q0 -84 -60.5 -144.5t-144.5 -60.5zM-615 2490
q-47 0 -68.5 -22t-21.5 -68t21.5 -68t68.5 -22q90 0 90 90t-90 90z" />
    <glyph glyph-name="uni0E4D" unicode="&#xe4d;" 
d="M-371 2092q108 0 172.5 -65t64.5 -173t-64.5 -173t-172.5 -65t-173.5 65t-65.5 173t65.5 173t173.5 65zM-372 1739q60 0 88.5 28t28.5 88q0 61 -28.5 90t-88.5 29q-61 0 -90.5 -29t-29.5 -90q0 -60 29 -88t91 -28z" />
    <glyph glyph-name="uni0E4E" unicode="&#xe4e;" 
d="M-512 1834l72 -133q-109 -65 -244 -65q-137 0 -222 62t-85 152q0 126 130 168q-95 36 -95 126q0 95 71 152t191 53q29 0 53 -1q19 0 48.5 -2t51.5 -1q46 1 90 14q45 15 83 47l-4 -72q-98 -127 -317 -125q-123 0 -123 -65q0 -36 37 -49q36 -13 151 -13v-130
q-211 0 -211 -102q0 -68 151 -68q94 0 172 52z" />
    <glyph glyph-name="uni0E4F" unicode="&#xe4f;" horiz-adv-x="1442" 
d="M719 1189q142 0 266 -73t197 -196.5t73 -265.5q0 -141 -73.5 -264t-197.5 -196t-265 -73t-263.5 73t-194.5 196.5t-72 265.5t72.5 265t195 195.5t262.5 72.5zM719 262q162 0 279 117t117 277q0 158 -119 275t-277 117q-161 0 -275.5 -115.5t-114.5 -276.5
q0 -162 114.5 -278t275.5 -116zM719 861q82 0 144.5 -62t62.5 -143q0 -84 -61.5 -145.5t-145.5 -61.5q-81 0 -142 61.5t-61 145.5q0 86 59 145.5t144 59.5z" />
    <glyph glyph-name="uni0E50" unicode="&#xe50;" horiz-adv-x="1610" 
d="M802 1101q121 0 234.5 -43t199 -117t137 -179.5t51.5 -222.5q0 -157 -87 -287.5t-229.5 -203t-305.5 -72.5q-161 0 -302.5 73.5t-227.5 204t-86 285.5q0 116 51 221.5t135.5 179.5t197 117.5t232.5 43.5zM1234 540q0 163 -129.5 277t-302.5 114q-112 0 -210.5 -51
t-159 -142t-60.5 -198q0 -109 60 -200t158.5 -142.5t211.5 -51.5q175 0 303.5 114.5t128.5 279.5z" />
    <glyph glyph-name="uni0E51" unicode="&#xe51;" horiz-adv-x="1747" 
d="M972 275q-2 2 -8 6q-54 -30 -113 -30q-91 0 -155.5 64.5t-64.5 154.5t65.5 155.5t154.5 65.5q131 0 203 -88t64 -241q-4 -149 -119.5 -260t-266.5 -111q-147 0 -272.5 70.5t-199.5 193.5t-74 269q0 131 60 243.5t157.5 185.5t219.5 114t249 41q142 0 268 -43.5
t219.5 -121.5t147.5 -195t54 -257q0 -294 -239 -561l-168 32q226 268 226 529q0 135 -71.5 237.5t-185.5 154.5t-253 55q-125 3 -238.5 -49.5t-185 -151t-71.5 -218.5q0 -161 101 -272.5t256 -111.5q183 0 240 140zM851 362q46 0 78 32t32 78t-31 77.5t-79 31.5
q-44 0 -76.5 -32.5t-32.5 -77.5t32.5 -77t76.5 -32z" />
    <glyph glyph-name="uni0E52" unicode="&#xe52;" horiz-adv-x="1850" 
d="M459 1295v-1139h877q40 0 77 40.5t37 82.5v506q0 85 -35 136t-89 51q-65 0 -101 -37.5t-37 -110.5h-94q-5 67 -42.5 107.5t-95.5 40.5q-68 0 -106 -40t-38 -117v-96q46 19 89 19q91 0 155.5 -65t64.5 -155t-64.5 -155t-154.5 -65q-281 0 -281 334v153q0 134 81.5 227
t216.5 93q142 0 223 -135q60 135 219 135q127 0 202.5 -85.5t75.5 -234.5v-559q0 -91 -84 -157.5t-186 -66.5h-1097v1260q0 15 -1.5 28.5t-5.5 27t-7.5 24t-10.5 23.5l-11 20.5t-13 20t-12.5 17l-13 17t-11.5 14.5l140 117q57 -41 95 -117.5t38 -158.5zM901 412
q47 0 78 30.5t31 76.5t-32 79t-77 33q-44 0 -77 -33t-33 -78t32.5 -76.5t77.5 -31.5z" />
    <glyph glyph-name="uni0E53" unicode="&#xe53;" horiz-adv-x="1821" 
d="M210 311v375q0 214 98 316.5t308 102.5q189 0 303 -203q99 203 296 203q397 0 397 -419v-686h-178v686q0 296 -219 296q-93 0 -148 -81.5t-55 -222.5v-678h-181v678q0 142 -58 223t-157 81q-218 0 -218 -296v-288q44 18 91 18q91 0 155 -64.5t64 -155.5q0 -90 -64 -155
t-155 -65q-279 0 -279 335zM489 89q44 0 76.5 32.5t32.5 77.5t-32.5 78t-76.5 33q-46 0 -78.5 -33t-32.5 -78t32.5 -77.5t78.5 -32.5z" />
    <glyph glyph-name="uni0E54" unicode="&#xe54;" horiz-adv-x="1861" 
d="M1056 342l-4 -13q61 -64 149.5 -108.5t188.5 -44.5q163 0 260 -44l-95 -148q-110 46 -247 46q-28 0 -257.5 -23t-259.5 -23q-168 0 -305 65.5t-218.5 189.5t-81.5 285q0 117 47 221t125.5 177t184.5 115.5t221 42.5h286q136 1 220 24.5t141 76.5q61 57 89 143.5t44 219.5
l168 -5q-19 -172 -68.5 -290t-147.5 -191q-78 -58 -194 -95t-260 -37h-274q-110 0 -201.5 -58.5t-141.5 -150t-50 -193.5q0 -170 118 -274t298 -104q73 0 265 27v16q-75 46 -138 127.5t-67 164.5q-6 135 62 217t195 82q89 0 155 -66t66 -155q0 -91 -65 -156t-156 -65
q-36 0 -52 4zM1108 451q46 0 78 31.5t32 76.5q0 46 -32 78.5t-78 32.5q-44 0 -76.5 -32t-32.5 -78q0 -45 32 -77t77 -32z" />
    <glyph glyph-name="uni0E55" unicode="&#xe55;" horiz-adv-x="1861" 
d="M764 1078h90q-23 46 -23 100q0 91 64 156t157 65q91 0 155 -65t64 -156q0 -40 -15 -79q75 19 123 62.5t90 109.5q20 34 34.5 84t19.5 81t15 100l174 -5q-14 -140 -49 -243t-104 -172q-177 -190 -517 -190h-274q-81 1 -148.5 -25.5t-112 -68.5t-75 -96.5t-44 -108.5
t-13.5 -106q0 -163 115.5 -270t300.5 -107q76 0 265 33v9q-84 51 -143 137t-62 158q-5 135 63 216t194 81q89 0 155 -65.5t66 -153.5q0 -92 -65 -158t-156 -66q-30 0 -52 7l-4 -16q61 -63 150 -107t188 -44q165 0 260 -43l-95 -148q-112 44 -247 44q-29 0 -258.5 -22
t-258.5 -22q-168 0 -305 65t-218.5 188.5t-81.5 283.5q0 156 79.5 284.5t212 200.5t286.5 72zM1108 451q46 0 78 31.5t32 76.5q0 46 -32 78.5t-78 32.5q-44 0 -76.5 -32.5t-32.5 -78.5q0 -45 32 -76.5t77 -31.5zM1052 1070q44 0 76.5 32t32.5 78q0 45 -32 77t-77 32
q-46 0 -79 -32t-33 -77q0 -46 33 -78t79 -32z" />
    <glyph glyph-name="uni0E56" unicode="&#xe56;" horiz-adv-x="1628" 
d="M845 1021q120 0 228 -38t189.5 -105.5t129.5 -167t48 -216.5q0 -146 -77 -266t-204 -186t-275 -66q-194 0 -304 96q-119 104 -119 239q0 93 63.5 157t157.5 64q92 0 155.5 -64.5t63.5 -156.5q0 -107 -85 -171q31 -26 68 -26q153 0 260.5 112.5t107.5 267.5
q0 159 -118 265.5t-286 106.5q-248 0 -510 -177l-47 67q-90 504 -247 762l159 56q131 -235 187 -679l11 -10q76 49 208.5 92.5t235.5 43.5zM602 236q31 -31 79 -31t79 31t31.5 78t-32.5 78t-78 31q-14 0 -28 -3.5t-27 -10.5t-24 -17q-33 -31 -32.5 -77.5t32.5 -78.5z" />
    <glyph glyph-name="uni0E57" unicode="&#xe57;" horiz-adv-x="2140" 
d="M1741 354v835q0 76 20.5 128t59.5 107q26 34 29 37l178 -67q-1 -3 -19 -26q-40 -49 -60.5 -96t-20.5 -116v-854q-16 -77 -73 -140t-136 -101t-169.5 -56.5t-177.5 -15.5v686q8 148 -38 222t-146 73q-95 0 -150.5 -81.5t-55.5 -223.5v-155h-180v155q0 141 -59 223t-157 82
q-190 0 -188 -295v-277q44 18 91 18q91 0 155 -64.5t64 -155.5q0 -90 -64 -155t-155 -65q-279 0 -279 335v364q0 210 97.5 315t292.5 104q176 0 289 -203q99 203 299 203q381 0 364 -419v-531q102 5 138.5 51t50.5 159zM489 89q44 0 76.5 32.5t32.5 77.5t-32.5 78t-76.5 33
q-46 0 -78.5 -33t-32.5 -79q0 -44 33 -76.5t78 -32.5z" />
    <glyph glyph-name="uni0E58" unicode="&#xe58;" horiz-adv-x="2001" 
d="M1515 668q123 0 192 -80t64 -216q-3 -83 -22.5 -152.5t-56 -125t-96.5 -87t-137 -31.5q-129 0 -271 112l-79.5 65.5t-88 71t-72 44.5t-73.5 22q-47 0 -68 -52t-21 -125l3 -114l-22 -21q-157 0 -289.5 68t-212 192.5t-79.5 279.5q0 117 47 221t125.5 177t184.5 115.5
t221 42.5h316q127 0 210.5 26t152.5 81q57 48 82 139.5t39 222.5l180 -10q-21 -170 -72 -289t-148 -193q-75 -57 -191.5 -94t-260.5 -37h-304q-81 0 -148.5 -25.5t-112 -67t-75 -95t-44 -107.5t-13.5 -107q0 -127 70.5 -221.5t194.5 -135.5q4 146 65.5 224t169.5 78
q61 0 126 -33.5t121 -86.5q6 -5 33.5 -32t36.5 -35l34.5 -32t38.5 -33t36.5 -27t40 -26l37.5 -18t40.5 -13.5t39.5 -3.5q68 0 110.5 33.5t52.5 96.5q-53 -28 -107 -28q-92 0 -155 65.5t-66 157.5q-3 88 63.5 153.5t157.5 65.5zM1515 342q45 0 77.5 31.5t32.5 76.5
q0 46 -32.5 78.5t-77.5 32.5q-46 0 -78.5 -32.5t-32.5 -78.5q0 -45 32.5 -76.5t78.5 -31.5z" />
    <glyph glyph-name="uni0E59" unicode="&#xe59;" horiz-adv-x="2001" 
d="M250 311l-40 324q6 461 414 461q167 0 314 -195q1 2 19.5 30.5t23 34.5l23 30.5t27.5 32.5l28 25.5t33.5 23.5t35 12t41.5 6q28 0 55.5 -9t49 -21t45 -35.5t38 -40.5t35 -48.5t29.5 -47l27 -48t23 -40.5q18 -31 27.5 -46t25.5 -29.5t31 -14.5q33 0 57.5 26.5t38.5 79.5
t22.5 106t11 135t3 135.5t-1 138t-1.5 114.5l181 -1q0 -311 -16 -450q-41 -366 -222 -430q-40 -14 -87 -14q-33 0 -66.5 19.5t-61 52t-47.5 61.5t-36 60q-66 125 -106 164q-29 28 -52 29q-91 0 -136 -218q39 -75 158 -388.5t132 -344.5h-192l-87.5 250t-89 237t-119.5 290
q-34 77 -91 139t-123 62q-222 0 -222 -334l39 -237q39 21 89 21q91 0 156 -64.5t65 -156.5q0 -91 -64.5 -155t-156.5 -64q-132 0 -200.5 81.5t-79.5 250.5zM530 91q46 0 78.5 31.5t32.5 76.5t-32.5 78t-78.5 33q-44 0 -77 -33t-33 -78t32.5 -76.5t77.5 -31.5z" />
    <glyph glyph-name="uni0E5A" unicode="&#xe5a;" horiz-adv-x="1872" 
d="M412 975q22 -8 43 -14.5t41 -11.5t40 -8t39 -5t37 -2q58 0 110 15q131 38 210.5 159.5t79.5 287.5h198v-1396h-195v1005q-67 -100 -184 -155.5t-243 -54.5q-34 0 -67 5q-154 25 -244.5 124.5t-90.5 264.5q0 89 63 150.5t151 61.5q87 0 149.5 -62.5t62.5 -149.5
q0 -86 -58 -147t-142 -67zM400 1085q43 0 75.5 30.5t32.5 75.5q0 42 -31.5 73.5t-76.5 31.5q-46 0 -76 -30t-30 -75q0 -44 31 -75t75 -31zM1664 1399v-1399h-186v1399h186z" />
    <glyph glyph-name="uni0E5B" unicode="&#xe5b;" horiz-adv-x="2466" 
d="M1962 812h-198l-128 -181l-107 181l-123 -263l-102 267l-113 -306l-146 279q-30 -266 -155 -417q-123 -153 -296 -153q-167 0 -284 151q-116 151 -124 394q0 236 92 384q91 146 248 146q127 0 204 -100q78 -101 78 -256q0 -157 -73 -239q-54 -73 -130 -73q-68 0 -112 54
t-44 136q0 78 42 133q43 56 114 56q57 0 89 -36q0 103 -47.5 164t-120.5 61q-100 0 -167 -112q-65 -109 -65 -282q0 -211 85 -346q84 -133 215 -133q154 0 257 180q105 181 105 465v39l-5 61l54 63l173 -398l118 339l122 -295l106 219l118 -200l87 116l229 2q173 -9 302 28
q-97 -92 -298 -128zM532 816q0 -42 20 -68.5t50 -26.5q33 0 53 25.5t20 69.5q0 43 -20 71t-53 28q-30 0 -50 -28.5t-20 -70.5z" />
    <glyph glyph-name="endash" unicode="&#x2013;" horiz-adv-x="1348" 
d="M232 825h886v-177h-886v177z" />
    <glyph glyph-name="emdash" unicode="&#x2014;" horiz-adv-x="1756" 
d="M1524 825v-177h-1292v177h1292z" />
    <glyph glyph-name="quoteleft" unicode="&#x2018;" horiz-adv-x="521" 
d="M140 1256v254q0 163 52 254q54 92 159 144l30 -60q-86 -56 -110 -128q-22 -67 -22 -210h116v-254h-225z" />
    <glyph glyph-name="quoteright" unicode="&#x2019;" horiz-adv-x="521" 
d="M381 1908v-254q0 -164 -53 -254q-52 -90 -158 -144l-30 60q84 57 106 128q24 72 24 210h-116v254h227z" />
    <glyph glyph-name="quotedblleft" unicode="&#x201c;" horiz-adv-x="926" 
d="M542 1239v253q0 163 54 253q54 92 158 143l32 -60q-86 -53 -110 -126q-22 -67 -22 -210h126v-253h-238zM140 1239v253q0 290 211 396q12 -20 33 -60q-86 -53 -110 -126q-23 -71 -23 -210h127v-253h-238z" />
    <glyph glyph-name="quotedblright" unicode="&#x201d;" horiz-adv-x="923" 
d="M381 1888v-254q0 -164 -53 -254q-52 -90 -158 -144l-30 60q84 57 106 128q24 72 24 210h-126v254h237zM784 1888v-254q0 -162 -54 -254q-52 -90 -158 -144l-30 60q85 58 107 128q23 69 23 210h-124v254v0v0v0v0v0v0h1v0v0v0v0h1v0v0h1v0v0h1v0h1v0h1v0h1v0h1v0h1v0h1v0h1
v0h1v0h1h1v0h1h1v0h1h1h1v0h1h1h1h1h1h1v0h1h1h1h1h1h1h1h1h1h1h1h1h1h1h1h1h1h1h1h1h1h1h1h1h1h1h1h1h1h1h1h1h1h1h1h1h1h1h1h1h1h1h1h1h1h1h1h1h1h1h1h1h1h1h1h1h1h1h1h1h1h1h1h1h1h1h1h1h1h1h1h1h1h1h1h1h1h1h1h1h1h1h1h1h1h1h1h1h1h1h1h1h1h1h1h1h1h1h1h1h1h1h1h1h1h1h1
h1h1h1h1h1h1h1h1h1h1h1h1h1h1h1h1h1h1h1h1h1h1h1h1h1h1h1h1h1h1h1h1h1h1h1h1h1h1h1h1h1h1h1h1h1h1h1h1h1h1h1h1h1h1h1h1h1h1h1h1h1h1h1h1h1h1h1h1h1h1h1h1h1h1h1h1h1h1h1h1h1h1h1h1h1h1h1h1h1h1h1h1h1h1h10z" />
    <glyph glyph-name="bullet" unicode="&#x2022;" horiz-adv-x="1178" 
d="M594 191q-145 0 -253 105q-109 107 -109 250q0 144 108 250q107 106 254 106q140 0 246 -106q108 -106 108 -248t-108 -250q-107 -107 -246 -107z" />
    <glyph glyph-name="ellipsis" unicode="&#x2026;" horiz-adv-x="1688" 
d="M300 159q34 0 61.5 -27.5t27.5 -61.5t-27.5 -61.5t-61.5 -27.5q-37 0 -63.5 27t-26.5 62t26.5 62t63.5 27zM845 -19q-35 0 -62 27.5t-27 61.5t27 61.5t62 27.5t62 -27.5t27 -61.5q0 -35 -26 -62t-63 -27zM1390 159q34 0 61 -27t27 -62q0 -34 -27 -61.5t-61 -27.5
q-37 0 -63 27t-26 62t26 62t63 27z" />
    <glyph glyph-name="Euro" unicode="&#x20ac;" horiz-adv-x="1640" 
d="M1122 714v-195h-576q24 -102 74 -179.5t131 -125t182 -48.5q129 0 214 38t130 102.5t74 169.5l173 -97q-42 -195 -200.5 -302t-389.5 -103q-240 0 -403.5 151t-208.5 394h-242v195h227v315h-227v195h231q18 177 98 317.5t217 222.5t308 82q229 0 386.5 -108t200.5 -302
l-174 -97q-43 159 -136 236t-278 77q-86 0 -157.5 -34t-121 -93t-80.5 -135.5t-42 -165.5h590v-195h-595v-315h595z" />
    <glyph glyph-name="uni0E0D.descless" unicode="&#xee0d;" horiz-adv-x="2137" 
d="M537 336q-114 0 -114 -115q0 -116 114 -116t114 116q0 115 -114 115zM1300 379q1 -97 57 -155t143 -58h47q84 0 140.5 59t59.5 154v1033h210v-1047q-1 -108 -55 -192.5t-141.5 -128.5t-190.5 -44h-94q-101 0 -186 41.5t-140.5 126t-59.5 198.5v649v1q0 68 -35 119.5
t-93 79.5t-122.5 41t-135.5 13q-62 0 -121.5 -9t-120.5 -30.5t-102.5 -64t-52.5 -101.5q112 -46 184 -103v-500q15 3 46 3q109 0 176 -67t67 -176q0 -111 -66.5 -177t-176.5 -66q-111 0 -182.5 66.5t-71.5 176.5l-2 714q-63 31 -181 56q13 109 69.5 196t141 140t185 80.5
t208.5 27.5q104 0 207 -26.5t191 -75t143 -128.5t55 -177v-649z" />
    <glyph glyph-name="uni0E10.descless" unicode="&#xee10;" horiz-adv-x="1309" 
d="M575 1262q-99 0 -175 -57.5t-80 -151.5q22 0 72 1q282 2 420 -21q315 -55 315 -261v-633l-13 -13.5t-25.5 -25t-34 -29.5t-50 -35.5t-63.5 -35.5h-172l-180 374q-68 -68 -176 -68q-109 0 -176 67t-67 177q0 109 66.5 175.5t176.5 66.5q82 0 141 -38.5t86 -105.5l236 -464
h41v584q-4 29 -29.5 53t-69 40t-95.5 27.5t-116.5 17.5t-122 10t-123.5 4.5t-110.5 0.5t-91.5 -1t-59 -1q0 141 61 258t170.5 185.5t243.5 68.5q34 0 67 -3t72.5 -11.5l60 -13t69.5 -18t62 -16.5q27 -6 53.5 -6.5t46.5 4t39.5 12.5t32 15.5t23.5 16.5t14.5 12.5l5.5 5.5
l-1 -1l79 -143q-51 -59 -145 -77t-188 6q-2 0 -31.5 8t-42.5 11l-45.5 10t-55 10t-55 6t-61.5 3zM413 435q114 0 114 115t-114 115q-116 0 -116 -115t116 -115z" />
    <glyph glyph-name="uni0E48.nik" unicode="&#xee48;" 
d="M-269 2229h-199v421h199v-421zM-371 2092q108 0 172.5 -65t64.5 -173t-64.5 -173t-172.5 -65t-173.5 65t-65.5 173t65.5 173t173.5 65zM-372 1739q60 0 88.5 28t28.5 88q0 61 -28.5 90t-88.5 29q-61 0 -90.5 -29t-29.5 -90q0 -60 29 -88t91 -28z" />
    <glyph glyph-name="uni0E49.nik" unicode="&#xee49;" 
d="M85 2760h189q-28 -146 -112 -258t-209 -180.5t-277 -103t-328 -34.5v128q51 1 115 35t82 69q-23 -6 -47 -6q-86 0 -146.5 60.5t-60.5 145.5q0 84 61 144.5t146 60.5q83 0 143.5 -57.5t60.5 -139.5q0 -69 -19.5 -142.5t-54.5 -129.5q63 12 119 30t116 51t104.5 76.5
t76.5 108t41 142.5zM-592 2616q0 -46 22 -68t68 -22q90 0 90 90t-90 90t-90 -90zM-371 2092q108 0 172.5 -65t64.5 -173t-64.5 -173t-172.5 -65t-173.5 65t-65.5 173t65.5 173t173.5 65zM-372 1739q60 0 88.5 28t28.5 88q0 61 -28.5 90t-88.5 29q-61 0 -90.5 -29t-29.5 -90
q0 -60 29 -88t91 -28z" />
    <glyph glyph-name="uni0E4A.nik" unicode="&#xee4a;" 
d="M165 2650h146q-13 -217 -154 -334.5t-358 -120.5q49 138 49 226q0 56 -23 95.5t-43 39.5q-43 -75 -137 -84q-46 4 -84.5 26t-59.5 58q-51 -14 -59 -76q65 -3 109.5 -46t44.5 -105q0 -63 -46.5 -107t-107.5 -44q-76 0 -126 56t-50 131q0 124 62.5 212.5t177.5 108.5
q18 -39 58.5 -70t80.5 -35q32 -3 83 36t60 69q93 -15 148.5 -92.5t55.5 -172.5q0 -28 -18 -79q99 38 146.5 112t44.5 196zM-558 2246q35 0 59.5 24.5t24.5 58.5t-24 58.5t-60 24.5q-33 0 -57 -24.5t-24 -58.5t24 -58.5t57 -24.5zM-371 2092q108 0 172.5 -65t64.5 -173
t-64.5 -173t-172.5 -65t-173.5 65t-65.5 173t65.5 173t173.5 65zM-372 1739q60 0 88.5 28t28.5 88q0 61 -28.5 90t-88.5 29q-61 0 -90.5 -29t-29.5 -90q0 -60 29 -88t91 -28z" />
    <glyph glyph-name="uni0E4B.nik" unicode="&#xee4b;" 
d="M-131 2359h-149v-154h-168v154h-151v151h151v146h168v-146h149v-151zM-371 2092q108 0 172.5 -65t64.5 -173t-64.5 -173t-172.5 -65t-173.5 65t-65.5 173t65.5 173t173.5 65zM-372 1739q60 0 88.5 28t28.5 88q0 61 -28.5 90t-88.5 29q-61 0 -90.5 -29t-29.5 -90
q0 -60 29 -88t91 -28z" />
  </font>
</defs>
</svg>
