<svg height="1108pt" viewBox="0 -24 1108.9991 1108" width="1108pt" xmlns="http://www.w3.org/2000/svg"><g fill="#2a6429"><path d="m428.660156 95.191406-134.585937 176.28125 180.183593 120.890625 67.992188-101.589843zm0 0"/><path d="m163.585938 946.914062 221.578124 11.398438-2.097656-216.980469-122.289062 1.398438zm0 0"/><path d="m1015.40625 751.230469-80.691406-206.582031-196.980469 91.09375 51.59375 110.890624"/></g><path d="m674.738281 95.191406 119.691407 198.179688 86.589843-48.292969-92.789062 266.476563-283.875-58.796876 94.589843-54.695312-170.285156-302.871094zm0 0" fill="#6ba840"/><path d="m225.265625 196.050781 18.933594-21.027343 28.160156 25.359374-18.933594 21.027344zm0 0" fill="#d5e174"/><path d="m291.273438 179.382812-28.097657-25.296874 132.488281-147.289063c3.601563-4 8.699219-6.296875 14.097657-6.296875h170.386719v37.894531h-161.988282zm0 0" fill="#d5e174"/><path d="m887.519531 961.511719-231.578125-.699219-3.601562 99.089844-179.582032-217.777344 197.78125-211.882812-2.398437 109.191406 347.265625 11.796875zm0 0" fill="#6ba840"/><path d="m887.519531 961.511719-231.578125-.699219-3.601562 99.089844-179.582032-217.777344 197.78125-211.882812-2.398437 109.191406 347.265625 11.796875zm0 0" fill="#6ba840"/><path d="m1006.707031 563.046875-8.097656-27.097656 36.296875-10.898438 8.097656 27.097657zm0 0" fill="#d5e174"/><path d="m1017.609375 929.914062-32.398437-19.695312 84.09375-138.390625-54.496094-181.683594 36.296875-10.898437 56.996093 189.683594c1.5 5.097656.898438 10.699218-1.902343 15.296874zm0 0" fill="#d5e174"/><path d="m24.496094 743.933594 95.792968-210.78125-88.691406-44.097656 272.273438-74.191407 111.890625 267.472657-98.589844-47.09375-153.585937 311.671874zm0 0" fill="#6ba840"/><path d="m24.496094 743.933594 95.792968-210.78125-88.691406-44.097656 272.273438-74.191407 111.890625 267.472657-98.589844-47.09375-153.585937 311.671874zm0 0" fill="#6ba840"/><path d="m333.808594 1053.964844 4.996094-37.566406 28.050781 3.726562-4.996094 37.566406zm0 0" fill="#d5e174"/><path d="m305.671875 1050.203125-196.28125-26.097656c-5.300781-.699219-10.101563-3.597657-13.101563-8.097657l-96.289062-140.488281 31.097656-21.296875 91.492188 133.585938 187.980468 25zm0 0" fill="#d5e174"/></svg>