<?xml version="1.0" encoding="iso-8859-1"?>
<!-- Generator: Adobe Illustrator 19.0.0, SVG Export Plug-In . SVG Version: 6.00 Build 0)  -->
<svg version="1.1" id="Layer_1" xmlns="http://www.w3.org/2000/svg" xmlns:xlink="http://www.w3.org/1999/xlink" x="0px" y="0px"
	 viewBox="0 0 511.999 511.999" style="enable-background:new 0 0 511.999 511.999;" xml:space="preserve">
<path style="fill:#37CC8F;" d="M472.493,380.737H39.506c-10.011,0-18.127-8.115-18.127-18.127V46.909
	c0-10.011,8.115-18.127,18.127-18.127h432.986c10.011,0,18.127,8.115,18.127,18.127V362.61
	C490.62,372.621,482.504,380.737,472.493,380.737z"/>
<path style="fill:#00DBC6;" d="M76.426,359.183c-18.469,0-33.493-15.024-33.493-33.493V83.829c0-18.469,15.024-33.493,33.493-33.493
	h359.146c18.467,0,33.493,15.024,33.493,33.493V325.69c0,18.467-15.024,33.493-33.493,33.493H76.426z"/>
<path style="fill:#FED9A8;" d="M50.477,325.69V83.829c0-14.331,11.618-25.949,25.949-25.949h359.147
	c14.331,0,25.949,11.618,25.949,25.949V325.69c0,14.331-11.618,25.949-25.949,25.949H76.426
	C62.095,351.639,50.477,340.021,50.477,325.69z"/>
<path style="fill:#EDC391;" d="M435.574,57.88H411.14c14.331,0,25.949,11.618,25.949,25.949V325.69
	c0,14.331-11.618,25.949-25.949,25.949h24.434c14.331,0,25.949-11.618,25.949-25.949V83.829
	C461.522,69.498,449.904,57.88,435.574,57.88z"/>
<path style="fill:#FE9901;" d="M494.886,483.217H17.113C7.661,483.217,0,475.555,0,466.104V397.85
	c0-9.451,7.661-17.113,17.113-17.113h477.773c9.451,0,17.113,7.661,17.113,17.113v68.254
	C512,475.555,504.338,483.217,494.886,483.217z"/>
<path style="fill:#E57501;" d="M494.886,380.737h-24.434c9.451,0,17.113,7.661,17.113,17.113v68.254
	c0,9.451-7.661,17.113-17.113,17.113h24.434c9.451,0,17.113-7.661,17.113-17.113V397.85
	C512,388.398,504.338,380.737,494.886,380.737z"/>
<g>
	<path style="fill:#E6E6E6;" d="M457.317,455L457.317,455c-12.716,0-23.023-10.308-23.023-23.023l0,0
		c0-12.715,10.308-23.023,23.023-23.023l0,0c12.715,0,23.023,10.308,23.023,23.023l0,0C480.34,444.692,470.032,455,457.317,455z"/>
	<path style="fill:#E6E6E6;" d="M378.433,455L378.433,455c-12.716,0-23.023-10.308-23.023-23.023l0,0
		c0-12.715,10.308-23.023,23.023-23.023l0,0c12.715,0,23.023,10.308,23.023,23.023l0,0C401.456,444.692,391.149,455,378.433,455z"/>
</g>
<path style="fill:#FE9901;" d="M461.397,328.231c-48.3-33.493-89.158-77.643-118.568-128.239l-0.993-1.708l-3.013-47.373
	L313.284,92.18c-1.332-3.063-4.045-3.393-5.148-3.393c-0.969,0-4.221,0.281-5.394,3.905l-17.771,54.873v17.218
	c0,8.39,6.826,15.216,15.216,15.216c4.629,0,8.382,3.753,8.382,8.382c0,4.629-3.753,8.382-8.382,8.382
	c-17.633,0-31.98-14.346-31.98-31.98v-8.954l-38.997,5.258l-33.071,36.128l-82.411,18.596c-3.775,0.855-6.874,3.362-8.494,6.879
	c-1.623,3.52-1.517,7.508,0.289,10.943c1.989,3.783,7.484,8.153,12.797,12.381c6.263,4.983,12.738,10.135,16.648,16.505
	c10.609,17.282,15.074,20.924,16.189,21.628c8.777,5.544,54.46,8.476,84.094,8.788l6.774,0.071l11.932,58.633h181.619
	C449.047,351.639,460.119,341.37,461.397,328.231z M246.491,195.342c0,4.629-3.753,8.382-8.382,8.382s-8.382-3.753-8.382-8.382
	v-3.151c0-4.629,3.753-8.382,8.382-8.382s8.382,3.753,8.382,8.382V195.342z"/>
<path style="fill:#ED2601;" d="M149.632,107.605h-22.136V85.469c0-2.632-2.134-4.766-4.766-4.766h-15.015
	c-2.632,0-4.766,2.134-4.766,4.766v22.136H80.815c-2.632,0-4.766,2.134-4.766,4.766v15.016c0,2.632,2.134,4.766,4.766,4.766h22.136
	v22.136c0,2.632,2.134,4.766,4.766,4.766h15.016c2.632,0,4.766-2.134,4.766-4.766v-22.136h22.136c2.632,0,4.766-2.134,4.766-4.766
	v-15.016C154.398,109.739,152.264,107.605,149.632,107.605z"/>
<path style="fill:#E57501;" d="M184.512,423.894H0l0,0v16.166l0,0h184.512c4.464,0,8.083-3.619,8.083-8.083
	S188.976,423.894,184.512,423.894z"/>
<g>
</g>
<g>
</g>
<g>
</g>
<g>
</g>
<g>
</g>
<g>
</g>
<g>
</g>
<g>
</g>
<g>
</g>
<g>
</g>
<g>
</g>
<g>
</g>
<g>
</g>
<g>
</g>
<g>
</g>
</svg>
