<?xml version="1.0" encoding="iso-8859-1"?>
<!-- Generator: Adobe Illustrator 19.0.0, SVG Export Plug-In . SVG Version: 6.00 Build 0)  -->
<svg version="1.1" id="Capa_1" xmlns="http://www.w3.org/2000/svg" xmlns:xlink="http://www.w3.org/1999/xlink" x="0px" y="0px"
	 viewBox="0 0 512 512" style="enable-background:new 0 0 512 512;" xml:space="preserve">
<rect x="29.305" y="392.683" transform="matrix(-0.7071 0.7071 -0.7071 -0.7071 451.3348 658.417)" style="fill:#17ACE8;" width="119.999" height="59.999"/>
<rect x="39.916" y="418.297" transform="matrix(-0.7071 0.7071 -0.7071 -0.7071 476.9534 669.0339)" style="fill:#1689FC;" width="119.999" height="30"/>
<path style="fill:#E5E5E5;" d="M248.407,412.086l-53.033,53.033c-5.939,5.939-15.273,5.94-21.213,0L46.881,337.84
	c-5.94-5.94-5.939-15.274,0-21.213l53.033-53.033h42.426L248.406,369.66L248.407,412.086L248.407,412.086z"/>
<path style="fill:#D9D9D9;" d="M248.407,369.659v42.426l-53.033,53.033c-5.939,5.939-15.273,5.94-21.213,0l-63.64-63.64
	l84.853-84.853L248.407,369.659z"/>
<rect x="92.945" y="329.044" transform="matrix(-0.7071 0.7071 -0.7071 -0.7071 514.9751 504.7769)" style="fill:#17ACE8;" width="119.999" height="59.999"/>
<rect x="103.553" y="354.661" transform="matrix(-0.7071 0.7071 -0.7071 -0.7071 540.5908 515.4007)" style="fill:#1689FC;" width="119.999" height="30"/>
<path style="fill:#E5E5E5;" d="M507.545,25.668l-100.039,100.04c-5.94,5.94-15.273,5.94-21.213,0c-5.94-5.94-5.94-15.273,0-21.213
	L486.332,4.455c5.94-5.94,15.273-5.94,21.213,0C513.485,10.395,513.485,19.728,507.545,25.668z"/>
<path style="fill:#D9D9D9;" d="M386.292,125.708L507.545,4.455c5.94,5.94,5.94,15.273,0,21.213l-100.039,100.04
	C401.565,131.648,392.233,131.648,386.292,125.708z"/>
<path style="fill:#1BD9DE;" d="M407.506,168.134l-21.213,21.213c-5.94,5.94-15.273,5.94-21.213,0l-42.426-42.426
	c-5.94-5.94-5.94-15.273,0-21.213l21.213-21.213c17.607-17.607,46.032-17.607,63.64,0S425.113,150.527,407.506,168.134z"/>
<path style="fill:#15B7BE;" d="M365.079,189.347l-21.213-21.213l63.64-63.64c17.607,17.607,17.607,46.032,0,63.64l-21.213,21.213
	C380.352,195.288,371.02,195.288,365.079,189.347z"/>
<path style="fill:#E5E5E5;" d="M375.686,284.807l-21.213,21.213h-42.426L205.98,199.954v-42.426l31.82-31.82
	c29.274-29.274,76.792-29.274,106.066,0l42.426,42.426c25.668,25.668,28.85,65.336,9.546,94.399l-30.759-9.546L375.686,284.807z"/>
<path style="fill:#D9D9D9;" d="M375.686,284.807l-21.213,21.213h-42.426l-53.033-53.033L365.08,146.921l21.213,21.213
	c25.668,25.668,28.85,65.336,9.546,94.399l-30.759-9.546L375.686,284.807z"/>
<polygon style="fill:#1DE8F1;" points="312.046,348.446 280.226,337.84 290.833,369.659 248.407,412.086 99.914,263.593 
	205.98,157.527 354.473,306.02 "/>
<g>
	<polygon style="fill:#1BD9DE;" points="248.407,412.086 174.16,337.84 280.226,231.774 354.473,306.02 312.046,348.446 
		280.226,337.84 290.833,369.659 	"/>
	<path style="fill:#1BD9DE;" d="M216.587,486.332c-5.939,5.939-15.273,5.94-21.213,0L25.668,316.626
		c-5.94-5.94-5.939-15.274,0-21.213c5.94-5.94,15.273-5.94,21.213,0l169.706,169.706
		C222.527,471.059,222.527,480.392,216.587,486.332z"/>
</g>
<path style="fill:#15B7BE;" d="M216.587,486.332c-5.939,5.939-15.273,5.94-21.213,0l-84.853-84.853l21.213-21.213l84.853,84.853
	C222.527,471.059,222.527,480.392,216.587,486.332z"/>
<g>
	<path style="fill:#73553A;" d="M322.653,210.56c-5.857,5.857-5.857,15.356,0,21.213l53.033,53.033l10.607-10.607
		c3.632-3.632,6.804-7.552,9.533-11.68l-51.96-51.96C338.009,204.703,328.512,204.702,322.653,210.56z"/>
	<path style="fill:#73553A;" d="M259.013,295.413c-5.857-5.857-15.354-5.859-21.213,0c-5.857,5.857-5.857,15.356,0,21.213
		l53.033,53.033l21.213-21.213L259.013,295.413z"/>
</g>
<path style="fill:#1BD9DE;" d="M110.521,507.545c-5.939,5.939-15.273,5.94-21.213,0L4.455,422.692c-5.94-5.94-5.939-15.274,0-21.213
	c5.94-5.94,15.273-5.94,21.213,0l84.853,84.853C116.461,492.272,116.461,501.605,110.521,507.545z"/>
<path style="fill:#15B7BE;" d="M110.521,507.545c-5.939,5.939-15.273,5.94-21.213,0l-42.426-42.426l21.213-21.213l42.426,42.426
	C116.461,492.272,116.461,501.605,110.521,507.545z"/>
<g>
</g>
<g>
</g>
<g>
</g>
<g>
</g>
<g>
</g>
<g>
</g>
<g>
</g>
<g>
</g>
<g>
</g>
<g>
</g>
<g>
</g>
<g>
</g>
<g>
</g>
<g>
</g>
<g>
</g>
</svg>
