<svg height="512pt" viewBox="-60 0 512 512.001" width="512pt" xmlns="http://www.w3.org/2000/svg"><path d="m152.523438 454.808594 228.289062-227.976563c14.917969-14.898437 14.917969-39.058593 0-53.960937-1.195312-1.191406-3.128906-1.191406-4.324219 0l-253.140625 252.800781zm0 0" fill="#9ad5ed"/><path d="m293.867188 179.953125c0 54.050781-43.816407 97.867187-97.867188 97.867187s-97.867188-43.816406-97.867188-97.867187 43.816407-97.867187 97.867188-97.867187 97.867188 43.816406 97.867188 97.867187zm0 0" fill="#ffd659"/><path d="m196 82.085938c-5.257812 0-10.417969.417968-15.453125 1.21875 46.707031 7.410156 82.414063 47.855468 82.414063 96.648437s-35.707032 89.238281-82.414063 96.648437c5.035156.800782 10.195313 1.21875 15.453125 1.21875 54.050781 0 97.867188-43.816406 97.867188-97.867187s-43.816407-97.867187-97.867188-97.867187zm0 0" fill="#ffbd54"/><g fill="#ffd659"><path d="m129.039062 67.992188c0 17.066406-13.835937 30.90625-30.90625 30.90625-17.066406 0-30.902343-13.839844-30.902343-30.90625 0-17.070313 13.835937-30.90625 30.902343-30.90625 17.070313 0 30.90625 13.835937 30.90625 30.90625zm0 0"/><path d="m324.773438 67.992188c0 17.066406-13.835938 30.90625-30.90625 30.90625-17.066407 0-30.902344-13.839844-30.902344-30.90625 0-17.070313 13.835937-30.90625 30.902344-30.90625 17.070312 0 30.90625 13.835937 30.90625 30.90625zm0 0"/><path d="m226.90625 30.90625c0 17.066406-13.835938 30.902344-30.90625 30.902344-17.066406 0-30.902344-13.835938-30.902344-30.902344 0-17.070312 13.835938-30.90625 30.902344-30.90625 17.070312 0 30.90625 13.835938 30.90625 30.90625zm0 0"/></g><path d="m98.132812 37.085938c-5.628906 0-10.90625 1.515624-15.453124 4.144531 9.238281 5.34375 15.453124 15.324219 15.453124 26.761719s-6.214843 21.417968-15.453124 26.761718c4.546874 2.632813 9.824218 4.144532 15.453124 4.144532 17.070313 0 30.90625-13.835938 30.90625-30.90625 0-17.066407-13.835937-30.90625-30.90625-30.90625zm0 0" fill="#ffbd54"/><path d="m293.867188 37.085938c-5.628907 0-10.90625 1.515624-15.453126 4.144531 9.234376 5.34375 15.453126 15.324219 15.453126 26.761719s-6.21875 21.417968-15.453126 26.761718c4.546876 2.632813 9.824219 4.144532 15.453126 4.144532 17.070312 0 30.90625-13.835938 30.90625-30.90625 0-17.066407-13.835938-30.90625-30.90625-30.90625zm0 0" fill="#ffbd54"/><path d="m196 0c-5.628906 0-10.90625 1.515625-15.453125 4.144531 9.238281 5.34375 15.453125 15.324219 15.453125 26.761719s-6.214844 21.414062-15.453125 26.757812c4.546875 2.632813 9.824219 4.148438 15.453125 4.148438 17.070312 0 30.90625-13.839844 30.90625-30.90625s-13.835938-30.90625-30.90625-30.90625zm0 0" fill="#ffbd54"/><path d="m247.511719 179.253906c0 4.261719-1.734375 8.125-4.535157 10.917969-2.792968 2.800781-6.65625 4.53125-10.917968 4.53125h-20.605469v20.605469c0 8.53125-6.921875 15.453125-15.453125 15.453125s-15.453125-6.921875-15.453125-15.453125v-20.605469h-20.605469c-8.527344 0-15.449218-6.921875-15.449218-15.449219 0-8.53125 6.921874-15.453125 15.449218-15.453125h20.605469v-20.605469c0-8.53125 6.921875-15.453124 15.453125-15.453124 4.265625 0 8.128906 1.730468 10.921875 4.53125 2.800781 2.792968 4.53125 6.65625 4.53125 10.921874v20.605469h20.605469c8.527344 0 15.453125 6.921875 15.453125 15.453125zm0 0" fill="#89ceea"/><path d="m239.476562 454.808594-228.285156-227.976563c-14.921875-14.898437-14.921875-39.058593 0-53.960937 1.195313-1.191406 3.128906-1.191406 4.324219 0l253.140625 252.800781zm0 0" fill="#cee8f2"/><path d="m152.511719 411.082031-11.660157-11.628906c-33.03125-33-86.589843-33-119.628906 0-12.886718 12.867187-19.332031 29.738281-19.332031 46.613281 0 12.550782 3.566406 25.097656 10.695313 35.996094.25.378906.503906.761719.761718 1.144531.382813.554688.765625 1.101563 1.15625 1.636719.332032.453125.671875.917969 1.019532 1.359375 1.734374 2.257813 3.632812 4.421875 5.695312 6.480469 12.898438 12.878906 29.792969 19.316406 46.691406 19.316406 16.898438 0 33.785156-6.4375 46.679688-19.316406l59.820312-59.730469zm-59.800781 59.753907c-.371094.367187-.753907.738281-1.148438 1.089843-.089844.082031-.195312.175781-.289062.257813-.007813.011718-.019532.019531-.027344.03125-6.636719 5.925781-14.992188 8.878906-23.335938 8.878906-8.976562 0-17.949218-3.417969-24.800781-10.257812-6.847656-6.84375-10.273437-15.804688-10.273437-24.769532 0-8.960937 3.425781-17.921875 10.273437-24.765625 20.953125-20.921875 54.914063-20.921875 75.863281 0l11.648438 11.632813.019531.019531zm0 0" fill="#e8e1d5"/><path d="m174.410156 432.953125-59.820312 59.730469c-12.894532 12.878906-29.78125 19.316406-46.679688 19.316406-16.898437 0-33.792968-6.4375-46.6875-19.316406-2.0625-2.058594-3.960937-4.222656-5.695312-6.480469-.351563-.441406-.691406-.90625-1.019532-1.359375-.394531-.535156-.777343-1.082031-1.15625-1.636719-.257812-.382812-.515624-.761719-.761718-1.144531 10.128906 5.789062 21.457031 8.703125 32.78125 8.703125 16.558594 0 33.085937-6.199219 45.875-18.550781.011718-.011719.019531-.023438.03125-.03125.09375-.082032.195312-.175782.289062-.257813.390625-.351562.773438-.722656 1.144532-1.09375l37.929687-37.878906-.019531-.023437 21.890625-21.847657zm0 0" fill="#d6cfc4"/><path d="m370.78125 399.453125c-33.039062-32.996094-86.601562-32.996094-119.632812 0l-33.554688 33.5 59.820312 59.730469c12.894532 12.878906 29.78125 19.316406 46.679688 19.316406 16.894531 0 33.792969-6.4375 46.6875-19.316406 12.882812-12.867188 19.332031-29.742188 19.332031-46.617188 0-16.871094-6.445312-33.746094-19.332031-46.613281zm-21.890625 71.382813c-6.847656 6.839843-15.824219 10.257812-24.796875 10.257812-8.976562 0-17.949219-3.417969-24.800781-10.257812l-37.929688-37.882813 11.664063-11.648437c20.953125-20.925782 54.914062-20.925782 75.863281 0 6.851563 6.839843 10.273437 15.800781 10.273437 24.765624 0 8.960938-3.421874 17.921876-10.273437 24.765626zm0 0" fill="#d6cfc4"/><path d="m370.78125 399.453125c-20.476562-20.445313-48.828125-28.210937-75.292969-23.316406 16.242188 3.003906 31.78125 10.765625 44.347657 23.316406 12.457031 12.441406 18.875 28.625 19.289062 44.933594.027344.5625.042969 1.121093.042969 1.683593 0 .558594-.015625 1.121094-.042969 1.679688-.414062 16.308594-6.832031 32.496094-19.289062 44.933594-8.929688 8.917968-19.777344 14.742187-31.214844 17.484375 5.078125 1.21875 10.273437 1.832031 15.472656 1.832031 16.894531 0 33.792969-6.4375 46.6875-19.316406 12.882812-12.867188 19.332031-29.738282 19.332031-46.613282s-6.445312-33.75-19.332031-46.617187zm0 0" fill="#c4beb4"/><path d="m203.726562 381.683594c0 4.265625-3.457031 7.722656-7.726562 7.722656-4.265625 0-7.726562-3.457031-7.726562-7.722656 0-4.269532 3.460937-7.726563 7.726562-7.726563 4.269531 0 7.726562 3.457031 7.726562 7.726563zm0 0" fill="#47251c"/></svg>