<svg height="512pt" viewBox="-73 0 512 512" width="512pt" xmlns="http://www.w3.org/2000/svg"><path d="m26.957031 430.148438v-348.296876c31.398438 0 56.851563-25.453124 56.851563-56.851562h197.382812c0 31.398438 25.453125 56.851562 56.855469 56.851562v348.296876c-31.398437 0-56.855469 25.453124-56.855469 56.851562h-197.382812c0-31.398438-25.453125-56.851562-56.851563-56.851562zm0 0" fill="#ff573d"/><path d="m323.757812 0h-282.515624c-22.777344 0-41.242188 18.449219-41.242188 41.207031v429.585938c0 22.757812 18.464844 41.207031 41.242188 41.207031h282.515624c22.777344 0 41.242188-18.449219 41.242188-41.207031v-429.585938c0-22.757812-18.464844-41.207031-41.242188-41.207031zm10.308594 470.792969c0 5.675781-4.628906 10.300781-10.308594 10.300781h-282.515624c-5.679688 0-10.308594-4.625-10.308594-10.300781v-429.585938c0-5.675781 4.628906-10.300781 10.308594-10.300781h282.515624c5.679688 0 10.308594 4.625 10.308594 10.300781zm0 0" fill="#e8e1d5"/><path d="m323.757812 0h-30.933593c22.777343 0 41.242187 18.449219 41.242187 41.207031v429.585938c0 22.757812-18.464844 41.207031-41.242187 41.207031h30.933593c22.777344 0 41.242188-18.449219 41.242188-41.207031v-429.585938c0-22.757812-18.464844-41.207031-41.242188-41.207031zm0 0" fill="#d6cfc4"/><path d="m0 143.714844h365v47.390625h-365zm0 0" fill="#b0693c"/><path d="m334.066406 144.738281h30.933594v47.390625h-30.933594zm0 0" fill="#9c5d35"/><path d="m223.230469 202.429688h-16.503907c-5.691406 0-10.304687-4.613282-10.304687-10.304688v-47.378906c0-5.691406 4.613281-10.304688 10.304687-10.304688h16.503907c2.277343 0 4.121093 1.84375 4.121093 4.121094v59.746094c0 2.277344-1.84375 4.121094-4.121093 4.121094zm0 0" fill="#716680"/><path d="m247.976562 202.429688h-16.5c-2.277343 0-4.125-1.84375-4.125-4.121094v-59.746094c0-2.277344 1.847657-4.125 4.125-4.125h16.5c5.695313 0 10.308594 4.613281 10.308594 10.304688v47.378906c0 5.695312-4.613281 10.308594-10.308594 10.308594zm0 0" fill="#635870"/><path d="m0 318.847656h365v47.386719h-365zm0 0" fill="#b0693c"/><path d="m334.066406 319.871094h30.933594v47.386718h-30.933594zm0 0" fill="#9c5d35"/><path d="m223.230469 377.5625h-16.503907c-5.691406 0-10.304687-4.617188-10.304687-10.308594v-47.378906c0-5.691406 4.613281-10.304688 10.304687-10.304688h16.503907c2.277343 0 4.121093 1.84375 4.121093 4.121094v59.746094c0 2.277344-1.84375 4.125-4.121093 4.125zm0 0" fill="#716680"/><path d="m247.976562 377.5625h-16.5c-2.277343 0-4.125-1.847656-4.125-4.125v-59.746094c0-2.277344 1.847657-4.121094 4.125-4.121094h16.5c5.695313 0 10.308594 4.613282 10.308594 10.304688v47.378906c0 5.691406-4.613281 10.308594-10.308594 10.308594zm0 0" fill="#635870"/></svg>